<svg width="150" height="45" viewBox="0 0 150 45" fill="none" xmlns="http://www.w3.org/2000/svg">
<rect width="150" height="45" fill="#303030"/>
<rect width="150" height="45" rx="15" fill="#D9D9D9"/>
<path d="M34.2248 32.27C31.8488 32.27 30.0308 31.703 28.7708 30.569C27.5288 29.435 26.9078 27.788 26.9078 25.628V14.612H29.1218V25.655C29.1218 27.239 29.5628 28.427 30.4448 29.219C31.3448 29.993 32.6048 30.38 34.2248 30.38C35.8268 30.38 37.0688 29.993 37.9508 29.219C38.8508 28.427 39.3008 27.239 39.3008 25.655V14.612H41.5148V25.628C41.5148 27.788 40.8848 29.435 39.6248 30.569C38.3828 31.703 36.5828 32.27 34.2248 32.27ZM52.0151 13.424L48.9101 9.428H50.8271L52.9061 12.182L54.9851 9.428H56.9021L53.7971 13.424H52.0151ZM52.9601 32.27C51.0881 32.27 49.5311 31.919 48.2891 31.217C47.0651 30.497 46.1471 29.498 45.5351 28.22C44.9231 26.924 44.6171 25.412 44.6171 23.684C44.6171 21.794 44.9051 20.147 45.4811 18.743C46.0571 17.339 46.9571 16.259 48.1811 15.503C49.4051 14.729 50.9891 14.342 52.9331 14.342C53.9411 14.342 54.8501 14.414 55.6601 14.558C56.4881 14.702 57.2621 14.9 57.9821 15.152V17.096C57.2621 16.826 56.4971 16.619 55.6871 16.475C54.8771 16.313 54.0221 16.232 53.1221 16.232C51.5561 16.232 50.3141 16.529 49.3961 17.123C48.4781 17.717 47.8211 18.572 47.4251 19.688C47.0291 20.804 46.8311 22.136 46.8311 23.684C46.8311 25.826 47.3351 27.482 48.3431 28.652C49.3691 29.804 50.9801 30.38 53.1761 30.38C53.9861 30.38 54.8051 30.317 55.6331 30.191C56.4791 30.065 57.2621 29.867 57.9821 29.597V31.568C57.2801 31.784 56.5151 31.955 55.6871 32.081C54.8771 32.207 53.9681 32.27 52.9601 32.27ZM61.2147 32V14.612H63.4287V32H61.2147ZM71.8981 32V16.367H66.1201V14.612H79.8901V16.367H74.1121V32H71.8981ZM82.5985 32V14.612H94.3435V16.367H84.8125V22.442H93.3715V24.17H84.8125V30.272H94.3435V32H82.5985ZM97.5751 32V14.612H99.7891V30.272H109.05V32H97.5751ZM116.324 13.424L118.241 8.888H120.239L118.106 13.424H116.324ZM111.761 32V14.612H123.506V16.367H113.975V22.442H122.534V24.17H113.975V30.272H123.506V32H111.761Z" fill="black"/>
</svg>
