<svg width="150" height="45" viewBox="0 0 150 45" fill="none" xmlns="http://www.w3.org/2000/svg">
<rect width="150" height="45" fill="#303030"/>
<rect width="150" height="45" rx="15" fill="#D9D9D9"/>
<path d="M33.6843 32.27C31.3083 32.27 29.4903 31.703 28.2303 30.569C26.9883 29.435 26.3673 27.788 26.3673 25.628V14.612H28.5813V25.655C28.5813 27.239 29.0223 28.427 29.9043 29.219C30.8043 29.993 32.0643 30.38 33.6843 30.38C35.2863 30.38 36.5283 29.993 37.4103 29.219C38.3103 28.427 38.7603 27.239 38.7603 25.655V14.612H40.9743V25.628C40.9743 27.788 40.3443 29.435 39.0843 30.569C37.8423 31.703 36.0423 32.27 33.6843 32.27ZM51.4746 13.424L48.3696 9.428H50.2866L52.3656 12.182L54.4446 9.428H56.3616L53.2566 13.424H51.4746ZM52.4196 32.27C50.5476 32.27 48.9906 31.919 47.7486 31.217C46.5246 30.497 45.6066 29.498 44.9946 28.22C44.3826 26.924 44.0766 25.412 44.0766 23.684C44.0766 21.794 44.3646 20.147 44.9406 18.743C45.5166 17.339 46.4166 16.259 47.6406 15.503C48.8646 14.729 50.4486 14.342 52.3926 14.342C53.4006 14.342 54.3096 14.414 55.1196 14.558C55.9476 14.702 56.7216 14.9 57.4416 15.152V17.096C56.7216 16.826 55.9566 16.619 55.1466 16.475C54.3366 16.313 53.4816 16.232 52.5816 16.232C51.0156 16.232 49.7736 16.529 48.8556 17.123C47.9376 17.717 47.2806 18.572 46.8846 19.688C46.4886 20.804 46.2906 22.136 46.2906 23.684C46.2906 25.826 46.7946 27.482 47.8026 28.652C48.8286 29.804 50.4396 30.38 52.6356 30.38C53.4456 30.38 54.2646 30.317 55.0926 30.191C55.9386 30.065 56.7216 29.867 57.4416 29.597V31.568C56.7396 31.784 55.9746 31.955 55.1466 32.081C54.3366 32.207 53.4276 32.27 52.4196 32.27ZM60.6742 32V14.612H72.4192V16.367H62.8882V22.442H71.4472V24.17H62.8882V30.272H72.4192V32H60.6742ZM75.6507 32V14.612H83.6967C85.4067 14.612 86.6577 15.017 87.4497 15.827C88.2597 16.619 88.6647 17.744 88.6647 19.202C88.6647 20.156 88.4667 20.957 88.0707 21.605C87.6927 22.235 87.1617 22.712 86.4777 23.036C87.3597 23.252 88.0527 23.675 88.5567 24.305C89.0787 24.917 89.3397 25.826 89.3397 27.032C89.3397 28.724 88.8987 29.975 88.0167 30.785C87.1347 31.595 85.8387 32 84.1287 32H75.6507ZM77.8647 22.226H83.5617C84.6597 22.226 85.4337 21.965 85.8837 21.443C86.3517 20.903 86.5857 20.21 86.5857 19.364C86.5857 18.356 86.3517 17.6 85.8837 17.096C85.4157 16.574 84.5067 16.313 83.1567 16.313H77.8647V22.226ZM77.8647 30.326H83.7507C84.9207 30.326 85.7757 30.074 86.3157 29.57C86.8557 29.048 87.1257 28.175 87.1257 26.951C87.1257 25.943 86.8557 25.187 86.3157 24.683C85.7937 24.161 84.8217 23.9 83.3997 23.9H77.8647V30.326ZM92.5785 32V14.612H94.5765L104.485 28.598V14.612H106.699V32H104.674L94.7925 18.041V32H92.5785ZM115.624 32V25.52L109.414 14.612H111.709L116.731 23.63L121.753 14.612H124.048L117.838 25.52V32H115.624Z" fill="black"/>
</svg>
