<svg width="180" height="45" viewBox="0 0 180 45" fill="none" xmlns="http://www.w3.org/2000/svg">
<rect width="180" height="45" rx="15" fill="#D9D9D9"/>
<path d="M39.4588 32V14.612H41.6728V23.225L49.7998 14.612H52.3918L45.9118 21.578L52.6078 32H50.2318L44.5078 23.009L41.6728 26.006V32H39.4588ZM54.1063 32L60.7213 14.612H63.3133L69.9013 32H67.6333L65.7973 27.221H58.2373L56.4013 32H54.1063ZM58.6153 25.466H65.3923L61.9903 16.529L58.6153 25.466ZM73.1297 32V14.612H81.1757C82.8857 14.612 84.1367 15.017 84.9287 15.827C85.7387 16.619 86.1437 17.744 86.1437 19.202C86.1437 20.156 85.9457 20.957 85.5497 21.605C85.1717 22.235 84.6407 22.712 83.9567 23.036C84.8387 23.252 85.5317 23.675 86.0357 24.305C86.5577 24.917 86.8187 25.826 86.8187 27.032C86.8187 28.724 86.3777 29.975 85.4957 30.785C84.6137 31.595 83.3177 32 81.6077 32H73.1297ZM75.3437 22.226H81.0407C82.1387 22.226 82.9127 21.965 83.3627 21.443C83.8307 20.903 84.0647 20.21 84.0647 19.364C84.0647 18.356 83.8307 17.6 83.3627 17.096C82.8947 16.574 81.9857 16.313 80.6357 16.313H75.3437V22.226ZM75.3437 30.326H81.2297C82.3997 30.326 83.2547 30.074 83.7947 29.57C84.3347 29.048 84.6047 28.175 84.6047 26.951C84.6047 25.943 84.3347 25.187 83.7947 24.683C83.2727 24.161 82.3007 23.9 80.8787 23.9H75.3437V30.326ZM90.0575 32V14.612H92.2715V32H90.0575ZM96.0428 32V14.612H98.0408L107.95 28.598V14.612H110.164V32H108.139L98.2568 18.041V32H96.0428ZM113.946 32V14.612H125.691V16.367H116.16V22.442H124.719V24.17H116.16V30.272H125.691V32H113.946ZM133.621 32V16.367H127.843V14.612H141.613V16.367H135.835V32H133.621Z" fill="black"/>
</svg>
