<svg width="150" height="45" viewBox="0 0 150 45" fill="none" xmlns="http://www.w3.org/2000/svg">
<rect width="150" height="45" rx="15" fill="#D9D9D9"/>
<path d="M46.5987 32V16.367H40.8207V14.612H54.5907V16.367H48.8127V32H46.5987ZM62.3212 13.424L59.2162 9.428H61.1332L63.2122 12.182L65.2912 9.428H67.2082L64.1032 13.424H62.3212ZM57.2992 32V14.612H64.9402C66.8122 14.612 68.1712 15.098 69.0172 16.07C69.8812 17.042 70.3132 18.356 70.3132 20.012C70.3132 21.29 69.9982 22.352 69.3682 23.198C68.7562 24.044 67.8382 24.611 66.6142 24.899C66.9742 25.115 67.2442 25.367 67.4242 25.655C67.6222 25.925 67.8202 26.294 68.0182 26.762L70.2862 32H68.0182L65.8042 26.951C65.5702 26.411 65.2822 26.024 64.9402 25.79C64.6162 25.556 64.0312 25.439 63.1852 25.439H59.5132V32H57.2992ZM59.5132 23.711H64.3192C65.4892 23.711 66.4072 23.423 67.0732 22.847C67.7572 22.253 68.0992 21.308 68.0992 20.012C68.0992 17.582 66.9382 16.367 64.6162 16.367H59.5132V23.711ZM73.5414 13.424L75.4584 8.888H77.4564L75.3234 13.424H73.5414ZM73.5414 32V14.612H75.7554V32H73.5414ZM79.5267 32V14.612H86.3307C88.8507 14.612 90.6957 15.296 91.8657 16.664C93.0357 18.032 93.6207 20.282 93.6207 23.414C93.6207 26.384 93.0447 28.562 91.8927 29.948C90.7587 31.316 88.9047 32 86.3307 32H79.5267ZM81.7407 30.272H85.9257C87.1497 30.272 88.1667 30.092 88.9767 29.732C89.7867 29.354 90.3897 28.67 90.7857 27.68C91.1997 26.69 91.4067 25.268 91.4067 23.414C91.4067 21.578 91.2177 20.147 90.8397 19.121C90.4797 18.095 89.8947 17.384 89.0847 16.988C88.2927 16.574 87.2397 16.367 85.9257 16.367H81.7407V30.272ZM100.226 32V25.52L94.016 14.612H96.311L101.333 23.63L106.355 14.612H108.65L102.44 25.52V32H100.226Z" fill="black"/>
</svg>
