<svg width="180" height="45" viewBox="0 0 180 45" fill="none" xmlns="http://www.w3.org/2000/svg">
<rect width="180" height="45" fill="#303030"/>
<rect width="180" height="45" rx="15" fill="#D9D9D9"/>
<path d="M14.4496 32V14.612H21.2536C23.7736 14.612 25.6186 15.296 26.7886 16.664C27.9586 18.032 28.5436 20.282 28.5436 23.414C28.5436 26.384 27.9676 28.562 26.8156 29.948C25.6816 31.316 23.8276 32 21.2536 32H14.4496ZM16.6636 30.272H20.8486C22.0726 30.272 23.0896 30.092 23.8996 29.732C24.7096 29.354 25.3126 28.67 25.7086 27.68C26.1226 26.69 26.3296 25.268 26.3296 23.414C26.3296 21.578 26.1406 20.147 25.7626 19.121C25.4026 18.095 24.8176 17.384 24.0076 16.988C23.2156 16.574 22.1626 16.367 20.8486 16.367H16.6636V30.272ZM39.2518 32.27C36.5338 32.27 34.5178 31.559 33.2038 30.137C31.8898 28.697 31.2328 26.42 31.2328 23.306C31.2328 20.192 31.8898 17.924 33.2038 16.502C34.5178 15.062 36.5338 14.342 39.2518 14.342C41.9878 14.342 44.0038 15.062 45.2998 16.502C46.6138 17.924 47.2708 20.192 47.2708 23.306C47.2708 26.42 46.6138 28.697 45.2998 30.137C44.0038 31.559 41.9878 32.27 39.2518 32.27ZM39.2518 30.38C40.5658 30.38 41.6458 30.155 42.4918 29.705C43.3558 29.255 43.9948 28.517 44.4088 27.491C44.8408 26.447 45.0568 25.052 45.0568 23.306C45.0568 21.56 44.8408 20.174 44.4088 19.148C43.9948 18.104 43.3558 17.357 42.4918 16.907C41.6458 16.457 40.5658 16.232 39.2518 16.232C37.9378 16.232 36.8488 16.457 35.9848 16.907C35.1388 17.357 34.4998 18.104 34.0678 19.148C33.6538 20.174 33.4468 21.56 33.4468 23.306C33.4468 25.052 33.6538 26.447 34.0678 27.491C34.4998 28.517 35.1388 29.255 35.9848 29.705C36.8488 30.155 37.9378 30.38 39.2518 30.38ZM50.5199 32V14.612H52.7339V23.225L60.8609 14.612H63.4529L56.9729 21.578L63.6689 32H61.2929L55.5689 23.009L52.7339 26.006V32H50.5199ZM72.7575 32.27C70.3815 32.27 68.5635 31.703 67.3035 30.569C66.0615 29.435 65.4405 27.788 65.4405 25.628V14.612H67.6545V25.655C67.6545 27.239 68.0955 28.427 68.9775 29.219C69.8775 29.993 71.1375 30.38 72.7575 30.38C74.3595 30.38 75.6015 29.993 76.4835 29.219C77.3835 28.427 77.8335 27.239 77.8335 25.655V14.612H80.0475V25.628C80.0475 27.788 79.4175 29.435 78.1575 30.569C76.9155 31.703 75.1155 32.27 72.7575 32.27ZM83.6898 32V14.612H86.0658L91.9518 26.681L97.8378 14.612H100.214V32H98.0268V18.068L92.7078 28.976H91.2228L85.8768 18.068V32H83.6898ZM103.993 32V14.612H115.738V16.367H106.207V22.442H114.766V24.17H106.207V30.272H115.738V32H103.993ZM118.969 32V14.612H120.967L130.876 28.598V14.612H133.09V32H131.065L121.183 18.041V32H118.969ZM141.57 32V16.367H135.792V14.612H149.562V16.367H143.784V32H141.57ZM157.677 32V25.52L151.467 14.612H153.762L158.784 23.63L163.806 14.612H166.101L159.891 25.52V32H157.677Z" fill="black"/>
</svg>
