<svg width="180" height="45" viewBox="0 0 180 45" fill="none" xmlns="http://www.w3.org/2000/svg">
<rect width="180" height="45" rx="15" fill="#D9D9D9"/>
<path d="M31.6014 32V14.612H33.8154V23.225L41.9424 14.612H44.5344L38.0544 21.578L44.7504 32H42.3744L36.6504 23.009L33.8154 26.006V32H31.6014ZM48.0018 32V14.612H50.3778L56.2638 26.681L62.1498 14.612H64.5258V32H62.3388V18.068L57.0198 28.976H55.5348L50.1888 18.068V32H48.0018ZM68.3046 32V14.612H80.0496V16.367H70.5186V22.442H79.0776V24.17H70.5186V30.272H80.0496V32H68.3046ZM83.2811 32V14.612H85.2791L95.1881 28.598V14.612H97.4021V32H95.3771L85.4951 18.041V32H83.2811ZM108.663 32.27C105.945 32.27 103.929 31.559 102.615 30.137C101.301 28.697 100.644 26.42 100.644 23.306C100.644 20.192 101.301 17.924 102.615 16.502C103.929 15.062 105.945 14.342 108.663 14.342C111.399 14.342 113.415 15.062 114.711 16.502C116.025 17.924 116.682 20.192 116.682 23.306C116.682 26.42 116.025 28.697 114.711 30.137C113.415 31.559 111.399 32.27 108.663 32.27ZM108.663 30.38C109.977 30.38 111.057 30.155 111.903 29.705C112.767 29.255 113.406 28.517 113.82 27.491C114.252 26.447 114.468 25.052 114.468 23.306C114.468 21.56 114.252 20.174 113.82 19.148C113.406 18.104 112.767 17.357 111.903 16.907C111.057 16.457 109.977 16.232 108.663 16.232C107.349 16.232 106.26 16.457 105.396 16.907C104.55 17.357 103.911 18.104 103.479 19.148C103.065 20.174 102.858 21.56 102.858 23.306C102.858 25.052 103.065 26.447 103.479 27.491C103.911 28.517 104.55 29.255 105.396 29.705C106.26 30.155 107.349 30.38 108.663 30.38ZM124.925 32L118.31 14.612H120.605L126.194 29.759L131.81 14.612H134.105L127.517 32H124.925ZM139.689 13.424L141.606 8.888H143.604L141.471 13.424H139.689ZM133.155 32L139.77 14.612H142.362L148.95 32H146.682L144.846 27.221H137.286L135.45 32H133.155ZM137.664 25.466H144.441L141.039 16.529L137.664 25.466Z" fill="black"/>
</svg>
