<svg width="180" height="45" viewBox="0 0 180 45" fill="none" xmlns="http://www.w3.org/2000/svg">
<rect width="180" height="45" rx="15" fill="#D9D9D9"/>
<path d="M22.5443 32V14.612H24.5423L34.4513 28.598V14.612H36.6653V32H34.6403L24.7583 18.041V32H22.5443ZM39.9076 32L46.5226 14.612H49.1146L55.7026 32H53.4346L51.5986 27.221H44.0386L42.2026 32H39.9076ZM44.4166 25.466H51.1936L47.7916 16.529L44.4166 25.466ZM61.8947 32L55.2797 14.612H57.5747L63.1637 29.759L68.7797 14.612H71.0747L64.4867 32H61.8947ZM73.9076 32V14.612H76.1216V32H73.9076ZM87.6959 32.27C85.8239 32.27 84.2669 31.919 83.0249 31.217C81.8009 30.497 80.8829 29.498 80.2709 28.22C79.6589 26.924 79.3529 25.412 79.3529 23.684C79.3529 21.794 79.6409 20.147 80.2169 18.743C80.7929 17.339 81.6929 16.259 82.9169 15.503C84.1409 14.729 85.7249 14.342 87.6689 14.342C88.6769 14.342 89.5859 14.414 90.3959 14.558C91.2239 14.702 91.9979 14.9 92.7179 15.152V17.096C91.9979 16.826 91.2329 16.619 90.4229 16.475C89.6129 16.313 88.7579 16.232 87.8579 16.232C86.2919 16.232 85.0499 16.529 84.1319 17.123C83.2139 17.717 82.5569 18.572 82.1609 19.688C81.7649 20.804 81.5669 22.136 81.5669 23.684C81.5669 25.826 82.0619 27.482 83.0519 28.652C84.0419 29.804 85.6349 30.38 87.8309 30.38C88.6049 30.38 89.3519 30.317 90.0719 30.191C90.7919 30.065 91.4309 29.894 91.9889 29.678V24.143H87.3449V22.631H93.9059V30.893C93.3839 31.235 92.6189 31.55 91.6109 31.838C90.6209 32.126 89.3159 32.27 87.6959 32.27ZM104.616 32.27C101.898 32.27 99.8821 31.559 98.5681 30.137C97.2541 28.697 96.5971 26.42 96.5971 23.306C96.5971 20.192 97.2541 17.924 98.5681 16.502C99.8821 15.062 101.898 14.342 104.616 14.342C107.352 14.342 109.368 15.062 110.664 16.502C111.978 17.924 112.635 20.192 112.635 23.306C112.635 26.42 111.978 28.697 110.664 30.137C109.368 31.559 107.352 32.27 104.616 32.27ZM104.616 30.38C105.93 30.38 107.01 30.155 107.856 29.705C108.72 29.255 109.359 28.517 109.773 27.491C110.205 26.447 110.421 25.052 110.421 23.306C110.421 21.56 110.205 20.174 109.773 19.148C109.359 18.104 108.72 17.357 107.856 16.907C107.01 16.457 105.93 16.232 104.616 16.232C103.302 16.232 102.213 16.457 101.349 16.907C100.503 17.357 99.8641 18.104 99.4321 19.148C99.0181 20.174 98.8111 21.56 98.8111 23.306C98.8111 25.052 99.0181 26.447 99.4321 27.491C99.8641 28.517 100.503 29.255 101.349 29.705C102.213 30.155 103.302 30.38 104.616 30.38ZM120.878 32L114.263 14.612H116.558L122.147 29.759L127.763 14.612H130.058L123.47 32H120.878ZM129.108 32L135.723 14.612H138.315L144.903 32H142.635L140.799 27.221H133.239L131.403 32H129.108ZM133.617 25.466H140.394L136.992 16.529L133.617 25.466ZM150.535 32V16.367H144.757V14.612H158.527V16.367H152.749V32H150.535Z" fill="black"/>
</svg>
