<svg width="230" height="45" viewBox="0 0 230 45" fill="none" xmlns="http://www.w3.org/2000/svg">
<rect width="230" height="45" rx="15" fill="#D9D9D9"/>
<path d="M26.1722 33V13.68H34.7822C36.2622 13.68 37.4822 13.96 38.4422 14.52C39.4022 15.08 40.1122 15.85 40.5722 16.83C41.0322 17.79 41.2622 18.89 41.2622 20.13C41.2622 22.05 40.6622 23.59 39.4622 24.75C38.2822 25.91 36.6822 26.49 34.6622 26.49H29.4422V33H26.1722ZM29.4422 23.91H34.0622C35.3622 23.91 36.3422 23.57 37.0022 22.89C37.6622 22.21 37.9922 21.29 37.9922 20.13C37.9922 18.89 37.6722 17.93 37.0322 17.25C36.4122 16.57 35.4722 16.23 34.2122 16.23H29.4422V23.91ZM49.6575 12.39L45.9075 7.56H48.5775L50.7975 10.59L53.0775 7.56H55.6875L51.9375 12.39H49.6575ZM43.8675 33V13.68H52.7475C54.9075 13.68 56.4775 14.24 57.4575 15.36C58.4575 16.46 58.9575 17.96 58.9575 19.86C58.9575 21.22 58.6175 22.38 57.9375 23.34C57.2575 24.3 56.2775 24.97 54.9975 25.35C55.3575 25.61 55.6375 25.89 55.8375 26.19C56.0375 26.49 56.2375 26.89 56.4375 27.39L58.8675 33H55.5075L53.1375 27.6C52.9175 27.08 52.6475 26.71 52.3275 26.49C52.0275 26.27 51.5075 26.16 50.7675 26.16H47.1375V33H43.8675ZM47.1375 23.52H51.8775C53.0575 23.52 53.9875 23.23 54.6675 22.65C55.3475 22.07 55.6875 21.14 55.6875 19.86C55.6875 17.44 54.5175 16.23 52.1775 16.23H47.1375V23.52ZM62.3881 12.36L64.6381 7.05H67.5181L64.9981 12.36H62.3881ZM62.1781 33V13.68H65.4481V33H62.1781ZM74.9379 12.39L71.1879 7.56H73.8579L76.0779 10.59L78.3579 7.56H80.9679L77.2179 12.39H74.9379ZM75.1179 33.3C72.6179 33.3 70.6079 32.98 69.0879 32.34V29.46C69.9479 29.78 70.8679 30.04 71.8479 30.24C72.8479 30.44 73.8379 30.54 74.8179 30.54C76.3579 30.54 77.5079 30.36 78.2679 30C79.0479 29.64 79.4379 28.92 79.4379 27.84C79.4379 27.18 79.2779 26.65 78.9579 26.25C78.6379 25.85 78.1079 25.51 77.3679 25.23C76.6279 24.93 75.6079 24.62 74.3079 24.3C72.2279 23.76 70.7679 23.08 69.9279 22.26C69.0879 21.42 68.6679 20.27 68.6679 18.81C68.6679 17.11 69.2879 15.78 70.5279 14.82C71.7679 13.86 73.6179 13.38 76.0779 13.38C77.1979 13.38 78.2479 13.46 79.2279 13.62C80.2279 13.78 81.0079 13.96 81.5679 14.16V17.04C80.0479 16.46 78.3679 16.17 76.5279 16.17C75.0879 16.17 73.9679 16.36 73.1679 16.74C72.3679 17.12 71.9679 17.81 71.9679 18.81C71.9679 19.39 72.1079 19.86 72.3879 20.22C72.6679 20.58 73.1479 20.89 73.8279 21.15C74.5279 21.41 75.4879 21.7 76.7079 22.02C78.2879 22.42 79.5079 22.9 80.3679 23.46C81.2479 24 81.8579 24.64 82.1979 25.38C82.5579 26.1 82.7379 26.92 82.7379 27.84C82.7379 29.54 82.1079 30.88 80.8479 31.86C79.5879 32.82 77.6779 33.3 75.1179 33.3ZM89.7174 33V16.23H83.5374V13.68H99.1374V16.23H92.9874V33H89.7174ZM101.968 12.36L104.218 7.05H107.098L104.578 12.36H101.968ZM101.758 33V13.68H105.028V33H101.758ZM120.772 33V16.23H114.592V13.68H130.192V16.23H124.042V33H120.772ZM138.85 12.36L141.1 7.05H143.98L141.46 12.36H138.85ZM138.85 33V25.83L131.92 13.68H135.31L140.47 23.07L145.63 13.68H149.02L142.09 25.83V33H138.85ZM151.621 33V13.68H159.451C162.311 13.68 164.431 14.44 165.811 15.96C167.191 17.46 167.881 19.96 167.881 23.46C167.881 26.76 167.201 29.18 165.841 30.72C164.481 32.24 162.351 33 159.451 33H151.621ZM154.891 30.48H158.941C160.201 30.48 161.251 30.3 162.091 29.94C162.931 29.56 163.561 28.86 163.981 27.84C164.401 26.82 164.611 25.36 164.611 23.46C164.611 21.56 164.421 20.09 164.041 19.05C163.661 18.01 163.051 17.28 162.211 16.86C161.391 16.44 160.301 16.23 158.941 16.23H154.891V30.48ZM171.104 33V13.68H184.574V16.23H174.374V22.08H183.464V24.6H174.374V30.48H184.574V33H171.104ZM187.598 33V13.68H190.478L200.558 27.9V13.68H203.798V33H200.918L190.868 18.81V33H187.598Z" fill="black"/>
</svg>
