<svg width="230" height="45" viewBox="0 0 230 45" fill="none" xmlns="http://www.w3.org/2000/svg">
<rect width="230" height="45" rx="15" fill="#D9D9D9"/>
<path d="M82.0173 33.3C79.5173 33.3 77.5073 32.98 75.9873 32.34V29.46C76.8473 29.78 77.7673 30.04 78.7473 30.24C79.7473 30.44 80.7373 30.54 81.7173 30.54C83.2573 30.54 84.4073 30.36 85.1673 30C85.9473 29.64 86.3373 28.92 86.3373 27.84C86.3373 27.18 86.1773 26.65 85.8573 26.25C85.5373 25.85 85.0073 25.51 84.2673 25.23C83.5273 24.93 82.5073 24.62 81.2073 24.3C79.1273 23.76 77.6673 23.08 76.8273 22.26C75.9873 21.42 75.5673 20.27 75.5673 18.81C75.5673 17.11 76.1873 15.78 77.4273 14.82C78.6673 13.86 80.5173 13.38 82.9773 13.38C84.0973 13.38 85.1473 13.46 86.1273 13.62C87.1273 13.78 87.9073 13.96 88.4673 14.16V17.04C86.9473 16.46 85.2673 16.17 83.4273 16.17C81.9873 16.17 80.8673 16.36 80.0673 16.74C79.2673 17.12 78.8673 17.81 78.8673 18.81C78.8673 19.39 79.0073 19.86 79.2873 20.22C79.5673 20.58 80.0473 20.89 80.7273 21.15C81.4273 21.41 82.3873 21.7 83.6073 22.02C85.1873 22.42 86.4073 22.9 87.2673 23.46C88.1473 24 88.7573 24.64 89.0973 25.38C89.4573 26.1 89.6373 26.92 89.6373 27.84C89.6373 29.54 89.0073 30.88 87.7473 31.86C86.4873 32.82 84.5773 33.3 82.0173 33.3ZM96.6168 33V16.23H90.4368V13.68H106.037V16.23H99.8868V33H96.6168ZM113.519 12.36L115.769 7.05H118.649L116.129 12.36H113.519ZM105.539 33L112.919 13.68H116.579L123.899 33H120.539L118.619 28.02H110.849L108.929 33H105.539ZM111.359 25.5H118.079L114.719 16.65L111.359 25.5ZM127.115 33V13.68H130.385V30.48H140.285V33H127.115ZM144.255 12.36L146.505 7.05H149.385L146.865 12.36H144.255ZM144.255 33V25.83L137.325 13.68H140.715L145.875 23.07L151.035 13.68H154.425L147.495 25.83V33H144.255Z" fill="black"/>
</svg>
