<svg width="51" height="52" viewBox="0 0 51 52" fill="none" xmlns="http://www.w3.org/2000/svg">
<rect x="1" y="1" width="50" height="50" rx="15" fill="#D9D9D9"/>
<path d="M35.0849 34.8134C36.7628 33.0785 37.8521 30.9956 38.3847 28.8105L41.7245 28.7384C41.1313 31.8686 39.6287 34.7626 37.4052 37.0573C31.1482 43.5273 20.8823 43.7488 14.4749 37.5523L16.7406 35.2094C21.858 40.1583 30.0877 39.9807 35.0849 34.8134ZM14.2025 14.6182C20.4595 8.14828 30.7254 7.9267 37.1328 14.1233L34.867 16.4662C29.7497 11.5172 21.52 11.6948 16.5227 16.8621C14.8449 18.597 13.7555 20.68 13.223 22.865L9.88318 22.9371C10.4763 19.807 11.979 16.9129 14.2025 14.6182ZM19.0064 32.8665L12.2091 39.8952L10.9672 31.893L19.0064 32.8665ZM32.6012 18.8091L39.3986 11.7804L40.6405 19.7825L32.6012 18.8091Z" fill="black"/>
</svg>
