<svg width="150" height="45" viewBox="0 0 150 45" fill="none" xmlns="http://www.w3.org/2000/svg">
<rect width="150" height="45" rx="15" fill="#D9D9D9"/>
<path d="M13.3714 32V14.612H15.7474L21.6334 26.681L27.5194 14.612H29.8954V32H27.7084V18.068L22.3894 28.976H20.9044L15.5584 18.068V32H13.3714ZM33.6742 13.424L35.5912 8.888H37.5892L35.4562 13.424H33.6742ZM33.6742 32V14.612H35.8882V32H33.6742ZM44.7625 32.27C42.6025 32.27 40.8565 32 39.5245 31.46V29.489C40.2805 29.777 41.0815 30.002 41.9275 30.164C42.7915 30.308 43.6735 30.38 44.5735 30.38C46.1215 30.38 47.2825 30.173 48.0565 29.759C48.8305 29.327 49.2175 28.562 49.2175 27.464C49.2175 26.78 49.0555 26.24 48.7315 25.844C48.4255 25.43 47.9125 25.088 47.1925 24.818C46.4725 24.53 45.5095 24.242 44.3035 23.954C42.3955 23.486 41.0545 22.883 40.2805 22.145C39.5065 21.389 39.1195 20.381 39.1195 19.121C39.1195 17.645 39.6505 16.484 40.7125 15.638C41.7745 14.774 43.3945 14.342 45.5725 14.342C46.5805 14.342 47.5165 14.414 48.3805 14.558C49.2445 14.702 49.9105 14.855 50.3785 15.017V16.961C49.7305 16.727 49.0285 16.547 48.2725 16.421C47.5165 16.295 46.7335 16.232 45.9235 16.232C44.4475 16.232 43.3135 16.448 42.5215 16.88C41.7295 17.312 41.3335 18.059 41.3335 19.121C41.3335 19.715 41.4685 20.201 41.7385 20.579C42.0265 20.939 42.5035 21.254 43.1695 21.524C43.8355 21.776 44.7625 22.046 45.9505 22.334C47.3725 22.676 48.4795 23.09 49.2715 23.576C50.0635 24.044 50.6215 24.602 50.9455 25.25C51.2695 25.898 51.4315 26.636 51.4315 27.464C51.4315 28.994 50.8735 30.182 49.7575 31.028C48.6415 31.856 46.9765 32.27 44.7625 32.27ZM58.2794 32V16.367H52.5014V14.612H66.2714V16.367H60.4934V32H58.2794ZM68.9798 32V14.612H70.9778L80.8868 28.598V14.612H83.1008V32H81.0758L71.1938 18.041V32H68.9798ZM94.3622 32.27C91.6442 32.27 89.6282 31.559 88.3142 30.137C87.0002 28.697 86.3432 26.42 86.3432 23.306C86.3432 20.192 87.0002 17.924 88.3142 16.502C89.6282 15.062 91.6442 14.342 94.3622 14.342C97.0982 14.342 99.1142 15.062 100.41 16.502C101.724 17.924 102.381 20.192 102.381 23.306C102.381 26.42 101.724 28.697 100.41 30.137C99.1142 31.559 97.0982 32.27 94.3622 32.27ZM94.3622 30.38C95.6762 30.38 96.7562 30.155 97.6022 29.705C98.4662 29.255 99.1052 28.517 99.5192 27.491C99.9512 26.447 100.167 25.052 100.167 23.306C100.167 21.56 99.9512 20.174 99.5192 19.148C99.1052 18.104 98.4662 17.357 97.6022 16.907C96.7562 16.457 95.6762 16.232 94.3622 16.232C93.0482 16.232 91.9592 16.457 91.0952 16.907C90.2492 17.357 89.6102 18.104 89.1782 19.148C88.7642 20.174 88.5572 21.56 88.5572 23.306C88.5572 25.052 88.7642 26.447 89.1782 27.491C89.6102 28.517 90.2492 29.255 91.0952 29.705C91.9592 30.155 93.0482 30.38 94.3622 30.38ZM110.206 32.27C108.046 32.27 106.3 32 104.968 31.46V29.489C105.724 29.777 106.525 30.002 107.371 30.164C108.235 30.308 109.117 30.38 110.017 30.38C111.565 30.38 112.726 30.173 113.5 29.759C114.274 29.327 114.661 28.562 114.661 27.464C114.661 26.78 114.499 26.24 114.175 25.844C113.869 25.43 113.356 25.088 112.636 24.818C111.916 24.53 110.953 24.242 109.747 23.954C107.839 23.486 106.498 22.883 105.724 22.145C104.95 21.389 104.563 20.381 104.563 19.121C104.563 17.645 105.094 16.484 106.156 15.638C107.218 14.774 108.838 14.342 111.016 14.342C112.024 14.342 112.96 14.414 113.824 14.558C114.688 14.702 115.354 14.855 115.822 15.017V16.961C115.174 16.727 114.472 16.547 113.716 16.421C112.96 16.295 112.177 16.232 111.367 16.232C109.891 16.232 108.757 16.448 107.965 16.88C107.173 17.312 106.777 18.059 106.777 19.121C106.777 19.715 106.912 20.201 107.182 20.579C107.47 20.939 107.947 21.254 108.613 21.524C109.279 21.776 110.206 22.046 111.394 22.334C112.816 22.676 113.923 23.09 114.715 23.576C115.507 24.044 116.065 24.602 116.389 25.25C116.713 25.898 116.875 26.636 116.875 27.464C116.875 28.994 116.317 30.182 115.201 31.028C114.085 31.856 112.42 32.27 110.206 32.27ZM123.723 32V16.367H117.945V14.612H131.715V16.367H125.937V32H123.723ZM134.423 32V14.612H136.637V32H134.423Z" fill="black"/>
</svg>
