<svg width="180" height="45" viewBox="0 0 180 45" fill="none" xmlns="http://www.w3.org/2000/svg">
<rect width="180" height="45" rx="15" fill="#D9D9D9"/>
<path d="M56.3505 13.424L53.2455 9.428H55.1625L57.2415 12.182L59.3205 9.428H61.2375L58.1325 13.424H56.3505ZM56.2425 32.27C54.0825 32.27 52.3365 32 51.0045 31.46V29.489C51.7605 29.777 52.5615 30.002 53.4075 30.164C54.2715 30.308 55.1535 30.38 56.0535 30.38C57.6015 30.38 58.7625 30.173 59.5365 29.759C60.3105 29.327 60.6975 28.562 60.6975 27.464C60.6975 26.78 60.5355 26.24 60.2115 25.844C59.9055 25.43 59.3925 25.088 58.6725 24.818C57.9525 24.53 56.9895 24.242 55.7835 23.954C53.8755 23.486 52.5345 22.883 51.7605 22.145C50.9865 21.389 50.5995 20.381 50.5995 19.121C50.5995 17.645 51.1305 16.484 52.1925 15.638C53.2545 14.774 54.8745 14.342 57.0525 14.342C58.0605 14.342 58.9965 14.414 59.8605 14.558C60.7245 14.702 61.3905 14.855 61.8585 15.017V16.961C61.2105 16.727 60.5085 16.547 59.7525 16.421C58.9965 16.295 58.2135 16.232 57.4035 16.232C55.9275 16.232 54.7935 16.448 54.0015 16.88C53.2095 17.312 52.8135 18.059 52.8135 19.121C52.8135 19.715 52.9485 20.201 53.2185 20.579C53.5065 20.939 53.9835 21.254 54.6495 21.524C55.3155 21.776 56.2425 22.046 57.4305 22.334C58.8525 22.676 59.9595 23.09 60.7515 23.576C61.5435 24.044 62.1015 24.602 62.4255 25.25C62.7495 25.898 62.9115 26.636 62.9115 27.464C62.9115 28.994 62.3535 30.182 61.2375 31.028C60.1215 31.856 58.4565 32.27 56.2425 32.27ZM64.1259 32L70.7409 14.612H73.3329L79.9209 32H77.6529L75.8169 27.221H68.2569L66.4209 32H64.1259ZM68.6349 25.466H75.4119L72.0099 16.529L68.6349 25.466ZM85.5533 32V16.367H79.7753V14.612H93.5453V16.367H87.7673V32H85.5533ZM96.2538 32V14.612H98.2518L108.161 28.598V14.612H110.375V32H108.35L98.4678 18.041V32H96.2538ZM113.617 32L120.232 14.612H122.824L129.412 32H127.144L125.308 27.221H117.748L115.912 32H113.617ZM118.126 25.466H124.903L121.501 16.529L118.126 25.466Z" fill="black"/>
</svg>
