<svg width="402" height="90" viewBox="0 0 402 90" fill="none" xmlns="http://www.w3.org/2000/svg">
<rect width="402" height="90" fill="#303030"/>
<rect width="402" height="90" rx="10" fill="#D9D9D9"/>
<g clip-path="url(#clip0_2077_4)">
<path d="M96.9832 7.20105H95.7518V83.6294H96.9832V7.20105Z" fill="#313132"/>
<mask id="mask0_2077_4" style="mask-type:luminance" maskUnits="userSpaceOnUse" x="6" y="7" width="390" height="77">
<path d="M396 7.20001H6V84H396V7.20001Z" fill="white"/>
</mask>
<g mask="url(#mask0_2077_4)">
<path d="M326.263 12.5021C326.997 12.3988 327.738 12.3497 328.479 12.3552C328.906 12.3552 329.271 12.3675 329.574 12.3922C329.878 12.4169 330.193 12.4535 330.521 12.5021L326.804 15.5135C326.59 15.5461 326.336 15.5788 326.04 15.6115C325.73 15.6448 325.418 15.6612 325.105 15.6605C324.569 15.6594 324.033 15.6102 323.505 15.5135L326.263 12.5021ZM328.085 21.7823C328.098 21.4526 328.031 21.1245 327.889 20.8263C327.764 20.5888 327.577 20.3896 327.347 20.2504C327.086 20.1008 326.798 20.0049 326.499 19.9684C326.128 19.9173 325.754 19.8929 325.379 19.8955C324.413 19.9095 323.456 20.0831 322.548 20.4093C322.336 20.0289 322.163 19.6286 322.031 19.2143C321.908 18.7762 321.849 18.3225 321.858 17.8676C322.562 17.6272 323.286 17.4469 324.021 17.3286C324.688 17.2194 325.363 17.1622 326.039 17.1578C327.477 17.0723 328.898 17.5073 330.039 18.3826C330.555 18.8895 330.952 19.5037 331.201 20.1811C331.451 20.8586 331.546 21.5825 331.481 22.3009V29.6465C330.793 29.8542 330.094 30.0257 329.388 30.1603C328.471 30.3304 327.54 30.4105 326.607 30.3993C325.834 30.4058 325.063 30.3321 324.305 30.1794C323.661 30.0562 323.049 29.8064 322.503 29.4445C322.01 29.1102 321.611 28.655 321.346 28.1229C321.057 27.5022 320.918 26.8229 320.939 26.1392C320.915 25.4474 321.091 24.7632 321.445 24.1675C321.772 23.6457 322.219 23.209 322.75 22.8937C323.302 22.568 323.905 22.3361 324.534 22.2077C325.181 22.07 325.841 22.0003 326.502 21.9998C326.979 21.9998 327.504 22.0241 328.077 22.0727L328.085 21.7823ZM328.085 24.3049C327.888 24.2723 327.675 24.2436 327.446 24.2189C327.241 24.1958 327.036 24.1834 326.83 24.1818C326.167 24.1484 325.507 24.2968 324.923 24.6108C324.69 24.7562 324.502 24.9618 324.379 25.2057C324.255 25.4495 324.2 25.7223 324.221 25.9946C324.198 26.3422 324.294 26.6873 324.491 26.9745C324.662 27.1952 324.886 27.3681 325.144 27.4764C325.403 27.5835 325.677 27.6497 325.956 27.6724C326.243 27.6971 326.494 27.7094 326.707 27.7094C326.954 27.7095 327.201 27.6891 327.446 27.6485C327.691 27.6078 327.904 27.5712 328.085 27.5385V24.3049ZM306.743 17.4732C307.104 17.3962 307.47 17.347 307.839 17.3263C308.175 17.3095 308.466 17.3016 308.712 17.3024C309.04 17.3024 309.369 17.3103 309.697 17.3263C310.004 17.3387 310.309 17.3787 310.608 17.4458L313.389 26.8729L316.121 17.4458C316.399 17.3972 316.695 17.3605 317.007 17.3358C317.32 17.3111 317.632 17.2988 317.943 17.2988C318.189 17.2988 318.472 17.3067 318.791 17.3227C319.159 17.3456 319.526 17.3947 319.887 17.4697L315.062 30.1042C314.736 30.1545 314.407 30.1872 314.077 30.2021C313.733 30.2189 313.446 30.2268 313.216 30.226C312.97 30.226 312.69 30.2181 312.375 30.2021C312.076 30.1887 311.78 30.1487 311.488 30.0826L306.743 17.4732ZM299.95 27.7572C300.342 27.7877 300.736 27.7089 301.086 27.5295C301.436 27.35 301.729 27.0772 301.932 26.7415C302.384 25.8345 302.592 24.8258 302.533 23.815C302.592 22.8041 302.384 21.7954 301.932 20.8885C301.729 20.5529 301.436 20.2801 301.086 20.1007C300.736 19.9213 300.342 19.8424 299.95 19.8728C299.561 19.8445 299.172 19.9246 298.826 20.104C298.48 20.2834 298.192 20.5551 297.993 20.8885C297.54 21.7954 297.333 22.8041 297.392 23.815C297.333 24.8259 297.54 25.8346 297.993 26.7415C298.192 27.075 298.48 27.3467 298.826 27.5261C299.172 27.7055 299.561 27.7856 299.95 27.7572ZM299.95 30.4017C299.026 30.4229 298.108 30.252 297.254 29.8998C296.522 29.5891 295.873 29.1128 295.358 28.5089C294.846 27.892 294.461 27.1805 294.225 26.4153C293.965 25.5748 293.836 24.6993 293.843 23.8198C293.837 22.9321 293.966 22.0485 294.225 21.1992C294.457 20.4252 294.842 19.7052 295.358 19.0817C295.874 18.4747 296.522 17.9932 297.254 17.674C298.106 17.3138 299.025 17.1387 299.95 17.1602C300.879 17.1396 301.801 17.3147 302.657 17.674C303.397 17.9927 304.054 18.474 304.58 19.0817C305.101 19.7014 305.487 20.4226 305.712 21.1992C305.963 22.0501 306.088 22.933 306.081 23.8198C306.089 24.6984 305.965 25.5732 305.712 26.4153C305.483 27.1831 305.098 27.8958 304.58 28.5089C304.056 29.1153 303.398 29.593 302.657 29.9046C301.799 30.2559 300.877 30.4267 299.95 30.4065M286.484 12.2082C287.062 12.1113 287.646 12.0621 288.232 12.0612C288.809 12.0629 289.386 12.112 289.955 12.2082V25.0637C289.948 25.4737 289.977 25.8836 290.041 26.2886C290.079 26.5441 290.171 26.7886 290.312 27.0056C290.428 27.1739 290.597 27.2997 290.792 27.3641C291.032 27.4355 291.281 27.4685 291.531 27.4621C291.675 27.4617 291.819 27.4537 291.962 27.4382C292.115 27.4223 292.267 27.3979 292.417 27.3653C292.593 28.0035 292.684 28.662 292.688 29.3238V29.6823C292.686 29.8034 292.669 29.9238 292.638 30.0408C292.329 30.1309 292.012 30.1882 291.691 30.2117C291.321 30.2444 290.981 30.2607 290.67 30.2607C289.559 30.3154 288.47 29.9426 287.629 29.2199C287.21 28.7657 286.892 28.2292 286.695 27.6451C286.498 27.0609 286.426 26.442 286.484 25.8285V12.2082ZM277.72 24.5977C276.915 24.3989 276.173 23.9987 275.567 23.435C275.289 23.1202 275.077 22.7533 274.944 22.356C274.811 21.9588 274.759 21.539 274.792 21.1215C274.766 20.5648 274.875 20.01 275.108 19.5033C275.342 18.9967 275.693 18.5527 276.134 18.2082C277.197 17.4544 278.486 17.0831 279.789 17.1554C280.425 17.155 281.059 17.2122 281.685 17.3263C282.33 17.4463 282.964 17.6182 283.581 17.8401C283.545 18.2875 283.464 18.7303 283.34 19.1617C283.225 19.5747 283.069 19.975 282.873 20.3567C282.449 20.1833 282.013 20.0399 281.568 19.9277C281.078 19.8034 280.573 19.7415 280.067 19.7437C279.617 19.7207 279.169 19.809 278.762 20.0006C278.613 20.0781 278.49 20.1966 278.407 20.342C278.324 20.4874 278.285 20.6535 278.295 20.8204C278.28 20.9646 278.303 21.1103 278.361 21.2432C278.419 21.3761 278.511 21.4918 278.627 21.5792C278.923 21.7594 279.242 21.8993 279.575 21.995L280.978 22.4109C281.407 22.53 281.824 22.6901 282.222 22.8889C282.576 23.0655 282.896 23.3016 283.17 23.5867C283.444 23.8839 283.653 24.2342 283.785 24.6156C283.944 25.0973 284.018 25.6025 284.006 26.1093C284.01 26.6942 283.879 27.2723 283.624 27.799C283.363 28.3294 282.984 28.7939 282.516 29.1577C281.99 29.5634 281.393 29.8703 280.756 30.0635C279.999 30.294 279.209 30.4057 278.417 30.3945C278.023 30.3945 277.663 30.3822 277.336 30.3575C277.018 30.3352 276.702 30.2953 276.388 30.238C276.084 30.1814 275.784 30.1121 275.49 30.0301C275.195 29.948 274.875 29.8421 274.529 29.7122C274.563 29.2608 274.642 28.8138 274.763 28.3774C274.886 27.9267 275.047 27.487 275.243 27.0629C275.743 27.2625 276.257 27.4224 276.782 27.5409C277.28 27.6483 277.787 27.7016 278.296 27.6999C278.547 27.6983 278.798 27.6779 279.047 27.6389C279.306 27.6013 279.559 27.5273 279.798 27.419C280.017 27.3209 280.214 27.1794 280.377 27.0032C280.548 26.7799 280.63 26.5015 280.608 26.2215C280.586 25.9415 280.461 25.6795 280.256 25.4856C279.946 25.2856 279.606 25.1363 279.249 25.0434L277.72 24.5977ZM260.441 17.4481C260.768 17.3733 261.102 17.3281 261.438 17.3131C261.725 17.3051 261.991 17.3012 262.238 17.3012C262.566 17.3012 262.903 17.3091 263.247 17.3251C263.562 17.3364 263.875 17.3764 264.183 17.4446L266.841 28.4873L269.845 17.4446C270.397 17.3456 270.957 17.2965 271.518 17.2976C271.764 17.2976 272.027 17.3016 272.306 17.3095C272.654 17.3268 273 17.3719 273.34 17.4446L268.589 33.0916C268.428 33.6354 268.192 34.1545 267.888 34.6343C267.648 35.0114 267.334 35.3366 266.965 35.5903C266.614 35.8216 266.221 35.9839 265.808 36.0683C265.355 36.1609 264.893 36.2062 264.43 36.2033C264.014 36.2062 263.599 36.1774 263.187 36.1173C262.818 36.0602 262.452 35.9824 262.091 35.8843C262.077 35.8159 262.068 35.7463 262.067 35.6763V35.4923C262.065 35.1169 262.111 34.7427 262.203 34.3786C262.292 34.0332 262.403 33.694 262.536 33.3629C262.729 33.4228 262.927 33.4679 263.127 33.4979C263.371 33.5386 263.618 33.5589 263.866 33.5588C264.063 33.5587 264.261 33.5463 264.457 33.5218C264.664 33.4936 264.862 33.4184 265.036 33.3019C265.252 33.1501 265.433 32.9536 265.566 32.7259C265.764 32.381 265.913 32.0102 266.009 31.6242L266.427 30.1065C266.245 30.1233 266.045 30.1352 265.826 30.1436C265.608 30.152 265.379 30.1555 265.15 30.1555H264.633C264.484 30.1572 264.335 30.1407 264.19 30.1065L260.441 17.4481ZM240.28 17.4481C240.508 17.3995 240.738 17.3628 240.97 17.3382C241.223 17.3124 241.478 17.3001 241.733 17.3012C241.979 17.2996 242.226 17.312 242.471 17.3382C242.684 17.3629 242.906 17.3995 243.136 17.4481C243.197 17.561 243.243 17.6816 243.271 17.8066C243.312 17.9612 243.349 18.1245 243.382 18.2966C243.415 18.4687 243.444 18.636 243.468 18.7985C243.494 18.9622 243.513 19.1008 243.53 19.2143C243.674 18.9509 243.847 18.7043 244.046 18.4794C244.269 18.2259 244.526 18.0036 244.809 17.8186C245.119 17.6158 245.454 17.455 245.806 17.3406C246.209 17.2127 246.63 17.1505 247.053 17.1566C249.039 17.1566 250.31 17.9074 250.869 19.4091C251.211 18.7882 251.686 18.249 252.26 17.8293C252.925 17.3596 253.727 17.123 254.542 17.1566C255.129 17.1071 255.719 17.188 256.271 17.3934C256.822 17.5988 257.321 17.9237 257.731 18.3444C258.497 19.4218 258.859 20.7331 258.752 22.0488V30.1042C257.595 30.3001 256.413 30.3001 255.256 30.1042V22.9582C255.289 22.2653 255.176 21.5733 254.923 20.9267C254.799 20.6862 254.604 20.4893 254.364 20.3624C254.124 20.2354 253.851 20.1847 253.581 20.2169C253.302 20.2162 253.024 20.2564 252.757 20.3364C252.477 20.4236 252.223 20.5793 252.018 20.7893C251.77 21.0551 251.584 21.3733 251.476 21.7202C251.322 22.2232 251.252 22.748 251.267 23.2737V30.1053C250.11 30.3013 248.929 30.3013 247.772 30.1053V22.9582C247.805 22.2653 247.691 21.5733 247.439 20.9267C247.315 20.6862 247.12 20.4893 246.88 20.3624C246.64 20.2354 246.367 20.1847 246.097 20.2169C245.812 20.2163 245.529 20.2565 245.256 20.3364C244.967 20.4244 244.707 20.5897 244.505 20.8144C244.256 21.1013 244.075 21.4403 243.975 21.8062C243.829 22.3487 243.763 22.9094 243.778 23.4708V30.1065C242.621 30.3025 241.44 30.3025 240.283 30.1065L240.28 17.4481ZM231.69 14.4368C231.845 14.4394 231.999 14.4087 232.141 14.3468C232.283 14.285 232.41 14.1934 232.514 14.0783C232.749 13.803 232.869 13.4475 232.846 13.0865C232.868 12.7255 232.749 12.3701 232.514 12.0946C232.408 11.9825 232.28 11.893 232.138 11.8319C231.996 11.7708 231.844 11.7392 231.689 11.7392C231.534 11.7392 231.381 11.7708 231.24 11.8319C231.098 11.893 230.97 11.9825 230.864 12.0946C230.629 12.3701 230.509 12.7255 230.531 13.0865C230.509 13.4475 230.629 13.803 230.864 14.0783C230.968 14.1934 231.095 14.285 231.237 14.3468C231.379 14.4087 231.533 14.4394 231.688 14.4368M228.805 13.0901C228.783 12.7082 228.845 12.3261 228.988 11.9708C229.13 11.6155 229.349 11.2956 229.629 11.0335C230.208 10.5585 230.935 10.2987 231.685 10.2987C232.435 10.2987 233.162 10.5585 233.74 11.0335C234.02 11.2957 234.239 11.6156 234.381 11.9709C234.524 12.3262 234.586 12.7082 234.564 13.0901C234.586 13.4719 234.524 13.8539 234.381 14.2092C234.239 14.5645 234.02 14.8845 233.74 15.1466C233.162 15.6216 232.435 15.8814 231.685 15.8814C230.935 15.8814 230.208 15.6216 229.629 15.1466C229.349 14.8846 229.13 14.5646 228.988 14.2093C228.845 13.854 228.783 13.4719 228.805 13.0901ZM225.975 17.4481C227.132 17.2522 228.314 17.2522 229.471 17.4481V24.1567C229.459 24.712 229.512 25.2666 229.63 25.8094C229.71 26.1865 229.879 26.5393 230.123 26.8383C230.343 27.09 230.628 27.2766 230.947 27.3772C231.322 27.4901 231.712 27.5438 232.104 27.5361C232.618 27.5473 233.131 27.4899 233.63 27.3653V17.4469C234.199 17.3508 234.775 17.3016 235.352 17.3C235.938 17.3009 236.523 17.3501 237.1 17.4469V29.6178C236.419 29.8379 235.725 30.0139 235.021 30.1448C234.133 30.3187 233.23 30.4047 232.325 30.4017C231.517 30.4039 230.71 30.3384 229.913 30.2057C229.179 30.0898 228.484 29.8032 227.883 29.3692C227.256 28.8877 226.775 28.244 226.491 27.5087C226.109 26.4668 225.933 25.3608 225.975 24.2523V17.4481ZM216.301 17.4481C216.547 17.3995 216.78 17.3629 217.002 17.3382C217.242 17.3128 217.482 17.3004 217.723 17.3012C217.964 17.3013 218.205 17.3177 218.444 17.3502C218.684 17.3824 218.916 17.4231 219.145 17.4697C219.207 17.5825 219.252 17.7031 219.281 17.8281C219.322 17.9835 219.359 18.146 219.392 18.3181C219.424 18.4902 219.453 18.661 219.478 18.8319C219.503 19.0028 219.523 19.1462 219.539 19.2609C219.911 18.7438 220.359 18.2857 220.868 17.9022C221.438 17.489 222.132 17.2786 222.837 17.3047C222.997 17.3047 223.186 17.3127 223.403 17.3286C223.561 17.3358 223.718 17.3602 223.87 17.4015C223.906 17.5876 223.93 17.7755 223.943 17.9644C223.959 18.1771 223.967 18.3974 223.967 18.6252C223.967 18.9024 223.955 19.2044 223.93 19.531C223.907 19.8441 223.862 20.1552 223.794 20.4619C223.596 20.4279 223.395 20.4115 223.194 20.4129H222.788C222.474 20.4161 222.161 20.4449 221.852 20.4989C221.49 20.5635 221.151 20.7195 220.867 20.9518C220.518 21.2475 220.252 21.6267 220.092 22.0536C219.859 22.7134 219.755 23.4114 219.784 24.1101V30.134C219.491 30.1827 219.195 30.2154 218.898 30.232C218.602 30.2487 218.315 30.2567 218.037 30.2559C217.757 30.2559 217.474 30.2475 217.187 30.232C216.9 30.2165 216.6 30.183 216.289 30.134L216.301 17.4481ZM205.174 27.4143C205.671 27.5519 206.184 27.6179 206.7 27.6102C207.139 27.6371 207.579 27.5627 207.985 27.3927C208.39 27.2228 208.751 26.9618 209.039 26.6304C209.644 25.7651 209.93 24.719 209.851 23.668C209.855 23.1961 209.814 22.7248 209.731 22.2603C209.663 21.8662 209.521 21.4883 209.313 21.1466C209.125 20.8454 208.868 20.5933 208.562 20.4117C208.228 20.2416 207.86 20.1499 207.485 20.1435C207.11 20.137 206.739 20.2161 206.399 20.3746C206.116 20.5259 205.875 20.7448 205.698 21.0116C205.509 21.299 205.376 21.6187 205.304 21.9544C205.22 22.3323 205.18 22.7183 205.184 23.1052L205.174 27.4143ZM201.678 17.4242C201.901 17.3763 202.127 17.3436 202.355 17.3263C202.576 17.3095 202.827 17.3016 203.105 17.3024C203.577 17.3037 204.047 17.3529 204.508 17.4493C204.57 17.5622 204.615 17.6828 204.644 17.8078C204.685 17.9632 204.726 18.1305 204.764 18.3097C204.803 18.489 204.838 18.6682 204.863 18.8367C204.888 19.0052 204.907 19.151 204.924 19.2657C205.08 18.9926 205.262 18.7346 205.466 18.4949C205.689 18.2334 205.95 18.0066 206.241 17.8222C206.559 17.6192 206.902 17.4585 207.262 17.3442C207.668 17.2173 208.092 17.1552 208.517 17.1602C209.198 17.1552 209.872 17.2886 210.498 17.5521C211.121 17.8189 211.672 18.2255 212.11 18.7399C212.6 19.326 212.964 20.005 213.181 20.7355C213.452 21.6576 213.581 22.6154 213.563 23.576C213.578 24.5468 213.42 25.5126 213.096 26.4284C212.807 27.2324 212.345 27.9638 211.742 28.571C211.128 29.1734 210.39 29.6369 209.579 29.9297C208.648 30.2614 207.664 30.4233 206.674 30.4077C206.395 30.4077 206.12 30.3953 205.85 30.3706C205.58 30.3459 205.355 30.3173 205.174 30.2846V35.9165C204.876 35.9642 204.576 35.9969 204.275 36.0145C203.988 36.0312 203.705 36.0392 203.426 36.0384C203.147 36.0376 202.864 36.0296 202.577 36.0145C202.276 35.9969 201.976 35.9642 201.678 35.9165V17.4242ZM190.971 12.5021C191.705 12.3989 192.445 12.3498 193.186 12.3552C193.613 12.3552 193.978 12.3675 194.282 12.3922C194.585 12.4169 194.901 12.4535 195.229 12.5021L191.513 15.5135C191.299 15.5461 191.044 15.5788 190.75 15.6115C190.439 15.6448 190.127 15.6612 189.814 15.6605C189.277 15.6594 188.742 15.6102 188.214 15.5135L190.971 12.5021ZM189.469 20.0926H187.828C187.777 19.8709 187.74 19.6462 187.718 19.4199C187.694 19.1964 187.681 18.9718 187.68 18.7471C187.68 18.3103 187.73 17.8749 187.828 17.4493H192.899V30.1077C192.33 30.2039 191.754 30.253 191.176 30.2547C190.607 30.2524 190.039 30.2032 189.478 30.1077L189.469 20.0926ZM174.333 17.4481C174.56 17.3996 174.79 17.3629 175.022 17.3382C175.276 17.3125 175.53 17.3001 175.785 17.3012C176.032 17.2996 176.278 17.312 176.524 17.3382C176.738 17.3629 176.959 17.3995 177.188 17.4481C177.249 17.561 177.295 17.6816 177.324 17.8066C177.365 17.9612 177.402 18.1245 177.434 18.2966C177.467 18.4687 177.496 18.636 177.521 18.7985C177.545 18.9622 177.565 19.1008 177.582 19.2143C177.759 18.9539 177.957 18.7081 178.173 18.4794C178.412 18.2274 178.68 18.0055 178.973 17.8186C179.291 17.6157 179.635 17.455 179.994 17.3406C180.4 17.2137 180.824 17.1516 181.25 17.1566C181.846 17.1124 182.445 17.1943 183.007 17.397C183.569 17.5997 184.082 17.9185 184.511 18.3324C185.329 19.3849 185.72 20.7043 185.607 22.0297V30.1101C184.45 30.3061 183.268 30.3061 182.111 30.1101V22.9582C182.15 22.2578 182.01 21.5591 181.705 20.9267C181.56 20.688 181.35 20.4948 181.1 20.3693C180.85 20.2437 180.569 20.1909 180.29 20.2169C179.999 20.2178 179.709 20.258 179.429 20.3364C179.124 20.4231 178.848 20.5879 178.628 20.8144C178.363 21.0974 178.165 21.4364 178.049 21.8062C177.886 22.3455 177.811 22.9077 177.828 23.4708V30.1065C176.671 30.3025 175.489 30.3025 174.333 30.1065V17.4481ZM167.485 20.0687C167.222 20 166.955 19.9469 166.685 19.9098C166.428 19.8826 166.169 19.8702 165.91 19.8728C165.418 19.861 164.93 19.975 164.495 20.2038C164.099 20.4185 163.758 20.7201 163.498 21.0857C163.224 21.4778 163.027 21.9182 162.919 22.3834C162.794 22.8919 162.732 23.4135 162.734 23.9369C162.718 24.5135 162.799 25.0886 162.974 25.6385C163.11 26.0571 163.342 26.4385 163.652 26.7522C163.939 27.0292 164.289 27.234 164.673 27.3497C165.087 27.4753 165.519 27.5374 165.952 27.5338C166.207 27.5348 166.462 27.5225 166.715 27.4967C166.973 27.4662 167.229 27.4131 167.478 27.3378L167.485 20.0687ZM167.485 12.2082C167.774 12.16 168.066 12.1273 168.358 12.1102C168.646 12.0935 168.929 12.0855 169.208 12.0863C169.486 12.0871 169.774 12.095 170.069 12.1102C170.366 12.1268 170.662 12.1595 170.956 12.2082V29.6919C170.185 29.9204 169.399 30.0964 168.605 30.2189C167.646 30.3523 166.679 30.4138 165.712 30.4029C164.866 30.4053 164.024 30.2846 163.213 30.0444C162.44 29.8196 161.723 29.4356 161.108 28.9175C160.478 28.373 159.985 27.6897 159.667 26.9219C159.289 25.972 159.109 24.9557 159.137 23.9345C159.132 23.0383 159.286 22.1483 159.592 21.3055C159.878 20.5111 160.321 19.7823 160.897 19.1629C161.476 18.5495 162.175 18.0613 162.952 17.729C163.8 17.3692 164.714 17.1897 165.635 17.202C165.93 17.202 166.238 17.2143 166.558 17.239C166.87 17.2622 167.179 17.3154 167.48 17.398L167.485 12.2082ZM153.804 22.4145C153.806 21.7273 153.576 21.0594 153.152 20.5168C152.946 20.2771 152.687 20.0878 152.395 19.9635C152.104 19.8391 151.787 19.7832 151.47 19.7999C151.127 19.776 150.783 19.8248 150.461 19.943C150.139 20.0613 149.845 20.2463 149.6 20.4858C149.138 21.0293 148.87 21.7095 148.837 22.4204L153.804 22.4145ZM148.807 24.8391C148.803 25.2495 148.894 25.6552 149.073 26.0248C149.253 26.3944 149.516 26.7177 149.841 26.9697C150.572 27.4408 151.433 27.6719 152.303 27.6305C152.877 27.6291 153.449 27.5759 154.013 27.4716C154.58 27.3701 155.136 27.2186 155.675 27.0187C155.874 27.3921 156.031 27.7865 156.142 28.1946C156.277 28.6731 156.351 29.1665 156.363 29.6632C154.977 30.1714 153.508 30.4206 152.031 30.3981C150.996 30.4228 149.965 30.2567 148.991 29.9082C148.205 29.621 147.497 29.1558 146.923 28.5495C146.381 27.9549 145.977 27.2486 145.741 26.481C145.479 25.6321 145.351 24.7482 145.359 23.8604C145.353 22.9718 145.486 22.0876 145.753 21.2398C145.996 20.4592 146.394 19.7348 146.922 19.1092C147.449 18.4969 148.106 18.0074 148.844 17.6752C149.685 17.3083 150.597 17.1285 151.515 17.1482C152.327 17.1331 153.133 17.2917 153.878 17.6131C154.548 17.9098 155.148 18.3439 155.638 18.8869C156.133 19.4452 156.506 20.1 156.733 20.8096C156.984 21.5815 157.108 22.3884 157.102 23.1996C157.102 23.5103 157.09 23.8162 157.065 24.1173C157.04 24.4184 157.011 24.6574 156.978 24.8343L148.807 24.8391ZM136.051 12.5272C136.544 12.4153 137.048 12.3659 137.553 12.3802C137.832 12.3802 138.14 12.3922 138.476 12.4173C138.786 12.438 139.095 12.4832 139.398 12.5523L140.407 14.1189L141.392 12.5523C141.645 12.4798 141.905 12.4346 142.167 12.4173C142.471 12.3926 142.77 12.3802 143.066 12.3802C143.627 12.3731 144.188 12.4224 144.739 12.5272L142.327 15.5637C142.048 15.5963 141.72 15.625 141.342 15.6497C140.964 15.6744 140.603 15.6867 140.261 15.6867C140.047 15.6867 139.772 15.6788 139.437 15.6628C139.102 15.6477 138.768 15.6077 138.439 15.5434L136.051 12.5272ZM136.495 17.4493C136.74 17.4007 136.974 17.3641 137.196 17.3394C137.436 17.314 137.676 17.3016 137.917 17.3024C138.158 17.3025 138.399 17.3189 138.638 17.3514C138.878 17.384 139.112 17.4238 139.339 17.4708C139.401 17.5836 139.447 17.7042 139.475 17.8293C139.516 17.9847 139.553 18.1472 139.586 18.3193C139.618 18.4914 139.647 18.6622 139.672 18.8331C139.697 19.004 139.717 19.1474 139.733 19.2621C140.105 18.7452 140.553 18.2872 141.062 17.9034C141.632 17.4903 142.326 17.2799 143.031 17.3059C143.196 17.3059 143.384 17.3143 143.597 17.3298C143.755 17.337 143.911 17.3614 144.064 17.4027C144.1 17.5888 144.124 17.7767 144.137 17.9656C144.154 18.1783 144.163 18.3986 144.163 18.6264C144.163 18.9036 144.15 19.2056 144.125 19.5322C144.103 19.8453 144.057 20.1564 143.99 20.4631C143.791 20.4291 143.59 20.4127 143.389 20.4141H142.983C142.669 20.4174 142.356 20.4462 142.047 20.5001C141.685 20.5648 141.346 20.7208 141.062 20.953C140.714 21.2487 140.447 21.6279 140.287 22.0548C140.055 22.7147 139.95 23.4126 139.98 24.1113V30.1352C139.686 30.1839 139.39 30.2166 139.093 30.2332C138.797 30.2499 138.51 30.2579 138.232 30.2571C137.953 30.2563 137.67 30.2483 137.382 30.2332C137.095 30.2165 136.795 30.1838 136.484 30.1352L136.495 17.4493ZM127.411 20.0938H125.816L125.696 19.6039L130.299 13.7485H130.865V17.4458H133.843C133.888 17.664 133.921 17.8846 133.942 18.1066C133.959 18.3026 133.967 18.5065 133.966 18.7184C133.966 18.947 133.958 19.1673 133.942 19.3792C133.922 19.6174 133.889 19.8544 133.843 20.089H130.865V25.0602C130.854 25.4718 130.894 25.8832 130.985 26.285C131.048 26.5541 131.171 26.8054 131.346 27.0199C131.498 27.1967 131.699 27.3244 131.925 27.3868C132.19 27.4566 132.463 27.4896 132.737 27.4848C132.978 27.4849 133.22 27.4645 133.458 27.4238L134.086 27.3139C134.2 27.627 134.28 27.951 134.326 28.2806C134.372 28.5764 134.397 28.8752 134.399 29.1745C134.399 29.3549 134.399 29.5055 134.387 29.6274C134.375 29.7492 134.367 29.8664 134.35 29.9858C133.584 30.1665 132.799 30.2567 132.011 30.2547C130.781 30.3391 129.562 29.9684 128.59 29.2139C128.16 28.7658 127.832 28.2312 127.628 27.6461C127.424 27.0609 127.349 26.4391 127.408 25.8225L127.411 20.0938ZM116.753 21.9544C116.235 21.7607 115.733 21.5274 115.252 21.2565C114.827 21.0183 114.444 20.7123 114.119 20.3507C113.798 19.9812 113.553 19.553 113.398 19.09C113.214 18.521 113.126 17.9252 113.14 17.3275C113.125 16.5708 113.272 15.8197 113.571 15.1239C113.846 14.5024 114.263 13.953 114.788 13.5191C115.347 13.0685 115.992 12.7352 116.684 12.5392C117.492 12.3091 118.33 12.1976 119.17 12.2082C119.959 12.2034 120.747 12.2771 121.521 12.428C122.302 12.589 123.071 12.8018 123.823 13.065C123.719 14.0326 123.452 14.9761 123.035 15.8564C122.789 15.7584 122.539 15.6605 122.284 15.5625C122.02 15.4635 121.748 15.3836 121.472 15.3235C121.151 15.253 120.827 15.1999 120.5 15.1645C120.091 15.1212 119.68 15.1009 119.269 15.1036C118.984 15.1039 118.7 15.1283 118.42 15.1765C118.147 15.2202 117.885 15.3112 117.645 15.4454C117.408 15.5836 117.212 15.7825 117.079 16.0213C116.919 16.3269 116.843 16.669 116.858 17.0132C116.848 17.2962 116.907 17.5773 117.03 17.8329C117.143 18.0516 117.302 18.2435 117.497 18.3958C117.7 18.5547 117.924 18.6865 118.161 18.7877C118.407 18.8945 118.653 18.9964 118.9 19.0936L120.376 19.6565C120.955 19.881 121.522 20.1343 122.075 20.4153C122.56 20.6584 122.998 20.9858 123.368 21.382C123.733 21.7879 124.014 22.2624 124.192 22.7777C124.405 23.4293 124.505 24.1123 124.487 24.7973C124.497 25.5798 124.342 26.3557 124.032 27.0749C123.732 27.7546 123.28 28.3573 122.711 28.8375C122.084 29.356 121.36 29.747 120.582 29.9882C119.638 30.2804 118.653 30.4208 117.665 30.4041C117.124 30.4041 116.64 30.3878 116.213 30.3551C115.411 30.2963 114.618 30.1484 113.85 29.9142C113.472 29.8002 113.078 29.6616 112.668 29.4983C112.722 28.9985 112.812 28.5033 112.938 28.0165C113.069 27.5027 113.225 26.9849 113.405 26.4631C114.036 26.7222 114.686 26.9312 115.35 27.088C115.988 27.2302 116.641 27.3 117.295 27.296C118.146 27.3417 118.993 27.1417 119.733 26.72C120.023 26.5322 120.258 26.2712 120.413 25.9637C120.569 25.6561 120.64 25.313 120.619 24.9693C120.631 24.6306 120.559 24.2941 120.41 23.9895C120.276 23.735 120.092 23.5101 119.868 23.3286C119.64 23.1449 119.387 22.9926 119.117 22.8757C118.839 22.753 118.552 22.6336 118.256 22.5172L116.753 21.9544Z" fill="#313132"/>
<path d="M392.603 21.7823C392.616 21.4525 392.548 21.1243 392.406 20.8263C392.281 20.5889 392.094 20.3897 391.864 20.2504C391.602 20.1008 391.314 20.0049 391.014 19.9683C390.643 19.9173 390.269 19.8929 389.895 19.8955C388.929 19.9095 387.973 20.0832 387.064 20.4093C386.853 20.0288 386.68 19.6286 386.548 19.2143C386.425 18.7762 386.367 18.3224 386.376 17.8676C387.08 17.627 387.804 17.4467 388.538 17.3286C389.206 17.2193 389.881 17.1622 390.557 17.1578C391.995 17.0722 393.416 17.5072 394.557 18.3826C395.073 18.8894 395.47 19.5036 395.719 20.1811C395.969 20.8585 396.064 21.5825 395.999 22.3009V29.6465C395.311 29.8541 394.612 30.0256 393.906 30.1603C392.989 30.3304 392.058 30.4105 391.125 30.3993C390.354 30.4042 389.585 30.3293 388.829 30.1758C388.185 30.0526 387.573 29.8028 387.027 29.4409C386.534 29.1063 386.136 28.6512 385.87 28.1193C385.582 27.4984 385.443 26.8192 385.464 26.1356C385.44 25.4444 385.615 24.7606 385.969 24.1651C386.296 23.6434 386.743 23.2068 387.274 22.8913C387.826 22.5653 388.429 22.3335 389.059 22.2053C389.706 22.0675 390.366 21.9978 391.028 21.9974C391.503 21.9974 392.028 22.0217 392.603 22.0703V21.7823ZM392.603 24.3049C392.406 24.2723 392.192 24.2436 391.962 24.2189C391.758 24.1958 391.553 24.1834 391.347 24.1818C390.684 24.1484 390.024 24.2968 389.439 24.6108C389.207 24.7561 389.019 24.9617 388.895 25.2056C388.771 25.4495 388.717 25.7223 388.738 25.9946C388.715 26.3422 388.81 26.6872 389.008 26.9745C389.178 27.1952 389.403 27.3681 389.661 27.4764C389.919 27.5835 390.193 27.6497 390.473 27.6724C390.76 27.6963 391.01 27.7094 391.223 27.7094C391.471 27.7095 391.718 27.6891 391.962 27.6485C392.208 27.6078 392.422 27.5712 392.603 27.5385V24.3049ZM378.178 12.2082C378.756 12.1113 379.341 12.0621 379.926 12.0612C380.504 12.0629 381.08 12.1121 381.649 12.2082V25.0637C381.642 25.4737 381.671 25.8836 381.735 26.2886C381.773 26.5441 381.865 26.7886 382.006 27.0056C382.122 27.1739 382.291 27.2997 382.486 27.3641C382.726 27.4355 382.975 27.4685 383.225 27.4621C383.369 27.4617 383.513 27.4537 383.656 27.4382C383.809 27.4223 383.961 27.3979 384.112 27.3653C384.288 28.0035 384.379 28.662 384.382 29.3238V29.6823C384.38 29.8034 384.364 29.9238 384.333 30.0408C384.024 30.1309 383.706 30.1881 383.385 30.2117C383.016 30.2444 382.675 30.2607 382.364 30.2607C381.253 30.3154 380.165 29.9426 379.323 29.2199C378.905 28.7657 378.586 28.2292 378.389 27.645C378.192 27.0608 378.12 26.442 378.178 25.8285V12.2082ZM369.391 27.7572C369.783 27.7877 370.177 27.7089 370.527 27.5295C370.877 27.35 371.17 27.0772 371.373 26.7415C371.825 25.8345 372.032 24.8258 371.973 23.815C372.032 22.8041 371.825 21.7955 371.373 20.8885C371.17 20.5528 370.877 20.2799 370.527 20.1005C370.177 19.9211 369.783 19.8422 369.391 19.8728C369.002 19.8444 368.613 19.9244 368.267 20.1038C367.921 20.2833 367.633 20.555 367.434 20.8885C366.981 21.7955 366.774 22.8041 366.833 23.815C366.774 24.8258 366.981 25.8345 367.434 26.7415C367.633 27.075 367.921 27.3467 368.267 27.5261C368.613 27.7055 369.002 27.7856 369.391 27.7572ZM369.391 30.4017C368.467 30.4229 367.549 30.252 366.695 29.8998C365.964 29.5869 365.316 29.1086 364.803 28.5029C364.29 27.8859 363.906 27.1745 363.67 26.4093C363.409 25.5688 363.281 24.6933 363.288 23.8138C363.282 22.9261 363.411 22.0426 363.67 21.1932C363.902 20.4193 364.287 19.6994 364.803 19.0757C365.318 18.4688 365.967 17.9872 366.699 17.668C367.55 17.3079 368.469 17.1327 369.394 17.1542C370.323 17.1336 371.246 17.3087 372.102 17.668C372.841 17.9867 373.499 18.468 374.024 19.0757C374.546 19.6953 374.932 20.4165 375.157 21.1932C375.408 22.0441 375.532 22.927 375.526 23.8138C375.533 24.6924 375.409 25.5672 375.157 26.4093C374.928 27.1773 374.543 27.89 374.024 28.5029C373.5 29.1093 372.842 29.587 372.102 29.8986C371.244 30.2499 370.322 30.4208 369.394 30.4005M355.067 23.4696L358.218 17.4458C358.862 17.3475 359.512 17.2984 360.163 17.2988C360.773 17.2977 361.383 17.3469 361.985 17.4458L358.741 23.3011L362.532 30.1125C361.888 30.2083 361.238 30.2574 360.587 30.2595C359.977 30.2566 359.369 30.2075 358.766 30.1125L355.067 23.4696ZM351.103 12.2058C351.672 12.1069 352.248 12.0577 352.826 12.0588C353.411 12.0584 353.996 12.1075 354.574 12.2058V30.1077C353.996 30.206 353.411 30.2551 352.826 30.2547C352.248 30.2558 351.672 30.2066 351.103 30.1077V12.2058ZM339.681 12.5236C340.173 12.4117 340.678 12.3623 341.182 12.3767C341.461 12.3767 341.769 12.389 342.105 12.4137C342.416 12.4344 342.724 12.4796 343.028 12.5487L344.037 14.1154L345.022 12.5487C345.275 12.4762 345.534 12.431 345.797 12.4137C346.1 12.389 346.4 12.3767 346.695 12.3767C347.257 12.3695 347.817 12.4188 348.369 12.5236L345.957 15.5601C345.678 15.5927 345.349 15.6214 344.971 15.6461C344.593 15.6708 344.233 15.6832 343.89 15.6832C343.676 15.6832 343.402 15.6752 343.066 15.6593C342.731 15.6441 342.398 15.6042 342.069 15.5398L339.681 12.5236ZM342.462 24.5929C341.656 24.394 340.915 23.9938 340.308 23.4302C340.03 23.1154 339.819 22.7485 339.686 22.3513C339.553 21.954 339.501 21.5342 339.533 21.1167C339.508 20.56 339.616 20.0053 339.85 19.4986C340.083 18.992 340.435 18.5479 340.875 18.2034C341.938 17.4497 343.227 17.0784 344.531 17.1506C345.166 17.1502 345.801 17.2074 346.426 17.3215C347.071 17.4415 347.705 17.6134 348.322 17.8353C348.287 18.2828 348.206 18.7255 348.082 19.157C347.967 19.57 347.81 19.9704 347.614 20.3519C347.19 20.1785 346.754 20.0351 346.31 19.9229C345.819 19.7986 345.314 19.7367 344.808 19.7389C344.359 19.716 343.91 19.8043 343.503 19.9958C343.355 20.0733 343.231 20.1918 343.148 20.3372C343.065 20.4826 343.027 20.6487 343.036 20.8156C343.021 20.9599 343.044 21.1055 343.103 21.2384C343.161 21.3713 343.253 21.487 343.369 21.5744C343.665 21.7546 343.984 21.8945 344.317 21.9903L345.72 22.4061C346.149 22.5251 346.565 22.6852 346.963 22.8841C347.317 23.0607 347.638 23.2968 347.911 23.582C348.185 23.879 348.395 24.2293 348.526 24.6108C348.685 25.0925 348.76 25.5977 348.747 26.1046C348.751 26.6894 348.621 27.2675 348.365 27.7943C348.104 28.3248 347.725 28.7893 347.258 29.1529C346.731 29.5586 346.135 29.8655 345.498 30.0587C344.74 30.2892 343.951 30.4009 343.159 30.3897C342.765 30.3897 342.404 30.3774 342.077 30.3527C341.76 30.3304 341.443 30.2905 341.13 30.2332C340.826 30.1766 340.527 30.1073 340.231 30.0253C339.936 29.9432 339.615 29.8373 339.27 29.7074C339.305 29.2561 339.383 28.8091 339.504 28.3726C339.627 27.9219 339.788 27.4822 339.985 27.0582C340.484 27.2578 340.999 27.4176 341.524 27.5361C342.021 27.6434 342.528 27.6967 343.037 27.6951C343.289 27.6935 343.54 27.6732 343.788 27.6341C344.048 27.5966 344.3 27.5226 344.539 27.4143C344.758 27.3159 344.954 27.1745 345.117 26.9984C345.288 26.7751 345.37 26.4968 345.348 26.2168C345.326 25.9367 345.201 25.6747 344.997 25.4808C344.691 25.2781 344.354 25.1252 344 25.0279L342.462 24.5929Z" fill="#313132"/>
<path d="M288.017 41.3417C288.005 41.2318 287.996 41.0971 287.989 40.9378C287.983 40.7789 287.98 40.645 287.98 40.5339C287.98 40.4228 287.98 40.314 287.989 40.167C287.999 40.0201 288.005 39.8982 288.017 39.8002C288.128 39.7882 288.257 39.7787 288.423 39.7727C288.589 39.7667 288.717 39.7631 288.829 39.7631C288.941 39.7631 289.05 39.7631 289.198 39.7727C289.346 39.7823 289.468 39.7882 289.567 39.8002C289.579 39.8982 289.588 40.0201 289.594 40.167C289.6 40.314 289.604 40.4359 289.604 40.5339C289.604 40.6319 289.604 40.7729 289.594 40.9378C289.585 41.1027 289.579 41.2318 289.567 41.3417C289.468 41.3537 289.345 41.3628 289.198 41.3692C289.05 41.3752 288.928 41.3788 288.829 41.3788C288.731 41.3788 288.589 41.3788 288.423 41.3692C288.257 41.3596 288.128 41.3537 288.017 41.3417ZM288.625 44.6614H287.445C287.431 44.5887 287.422 44.5153 287.418 44.4415C287.411 44.3554 287.408 44.2634 287.408 44.1654C287.408 44.0675 287.408 43.9707 287.418 43.8727C287.421 43.7925 287.431 43.7126 287.445 43.6337H289.842V52.9856C289.741 53.0003 289.64 53.0095 289.538 53.0131C289.408 53.019 289.307 53.0226 289.234 53.0226C289.161 53.0226 289.074 53.0226 288.938 53.0131C288.833 53.0097 288.729 53.0006 288.625 52.9856V44.6614ZM277.509 43.6349C277.608 43.6229 277.702 43.6134 277.795 43.6074C277.887 43.6014 277.976 43.5978 278.063 43.5978C278.149 43.5978 278.253 43.5978 278.339 43.6074C278.426 43.6169 278.517 43.6229 278.615 43.6349C278.64 43.8547 278.659 44.13 278.671 44.4606C278.683 44.7912 278.689 45.0784 278.689 45.3222C278.826 45.0834 278.987 44.8592 279.169 44.653C279.373 44.4204 279.605 44.2141 279.86 44.0388C280.141 43.8468 280.449 43.6955 280.773 43.5895C281.136 43.4702 281.516 43.4113 281.897 43.415C282.34 43.3761 282.785 43.4433 283.196 43.6108C283.606 43.7784 283.971 44.0416 284.258 44.3781C284.795 45.175 285.054 46.125 284.996 47.0824V52.9868C284.895 53.0016 284.793 53.0107 284.691 53.0143C284.562 53.0202 284.46 53.0238 284.387 53.0238C284.313 53.0238 284.227 53.0238 284.092 53.0143C283.987 53.011 283.883 53.0018 283.779 52.9868V47.448C283.842 46.6707 283.672 45.8922 283.29 45.211C283.122 44.9846 282.9 44.8036 282.644 44.685C282.388 44.5664 282.106 44.5139 281.824 44.5323C281.405 44.5299 280.99 44.6176 280.607 44.7892C280.227 44.9597 279.889 45.2134 279.621 45.5313C279.327 45.8862 279.105 46.2939 278.966 46.7322C278.799 47.26 278.718 47.8112 278.726 48.3646V52.9856C278.625 53.0003 278.524 53.0095 278.422 53.0131C278.292 53.019 278.191 53.0226 278.118 53.0226C278.045 53.0226 277.958 53.0226 277.823 53.0131C277.718 53.0098 277.613 53.0006 277.509 52.9856V43.6349ZM266.964 39.5086C267.065 39.4942 267.166 39.4851 267.268 39.4811C267.398 39.474 267.498 39.4716 267.573 39.4716C267.647 39.4716 267.733 39.4716 267.867 39.4811C267.972 39.4848 268.077 39.494 268.181 39.5086V45.3043C268.318 45.0654 268.479 44.8412 268.661 44.6351C268.864 44.4042 269.093 44.198 269.344 44.0208C269.914 43.6189 270.598 43.4072 271.297 43.4162C271.743 43.3796 272.191 43.4477 272.606 43.6149C273.02 43.7822 273.39 44.0441 273.684 44.3793C274.239 45.1688 274.509 46.122 274.449 47.0836V52.988C274.349 53.0027 274.247 53.0119 274.145 53.0154C274.016 53.0214 273.915 53.025 273.841 53.025C273.768 53.025 273.682 53.025 273.546 53.0154C273.441 53.0121 273.336 53.0029 273.232 52.988V47.448C273.298 46.6671 273.118 45.8851 272.716 45.211C272.541 44.9856 272.314 44.8059 272.054 44.6876C271.793 44.5693 271.508 44.516 271.223 44.5323C270.808 44.5293 270.397 44.6106 270.015 44.7713C269.642 44.9291 269.31 45.1708 269.047 45.4775C268.758 45.8225 268.542 46.2215 268.411 46.651C268.25 47.1766 268.172 47.7242 268.181 48.2738V52.9868C268.08 53.0015 267.979 53.0107 267.877 53.0143C267.747 53.0202 267.646 53.0238 267.573 53.0238C267.5 53.0238 267.413 53.0238 267.279 53.0143C267.174 53.0109 267.069 53.0017 266.965 52.9868L266.964 39.5086ZM264.346 51.8169C264.421 51.9755 264.48 52.1412 264.522 52.3116C264.577 52.5195 264.616 52.6904 264.642 52.8254C264.3 52.945 263.949 53.0369 263.592 53.1003C263.16 53.177 262.721 53.2138 262.282 53.2102C261.643 53.2552 261.001 53.1667 260.397 52.9504C259.794 52.7341 259.243 52.3948 258.779 51.9543C257.918 50.9429 257.487 49.637 257.578 48.3144C257.572 47.6579 257.671 47.0047 257.873 46.3797C258.055 45.8098 258.35 45.2816 258.74 44.8263C259.131 44.3784 259.62 44.0242 260.168 43.7902C260.795 43.5288 261.469 43.4005 262.149 43.4138C262.597 43.4125 263.044 43.4464 263.486 43.5154C263.827 43.5632 264.163 43.64 264.49 43.7448C264.487 43.9301 264.466 44.1146 264.427 44.2957C264.395 44.4642 264.349 44.6297 264.288 44.7904C263.985 44.691 263.674 44.6175 263.357 44.5705C262.958 44.5074 262.554 44.4766 262.15 44.4785C261.655 44.468 261.163 44.565 260.709 44.7629C260.306 44.9445 259.952 45.2175 259.675 45.56C259.39 45.9184 259.18 46.33 259.058 46.7705C258.918 47.2718 258.849 47.7904 258.855 48.3108C258.809 48.8338 258.87 49.3605 259.033 49.8597C259.196 50.359 259.458 50.8205 259.804 51.217C260.149 51.5346 260.554 51.7802 260.996 51.9393C261.437 52.0984 261.907 52.1677 262.376 52.1431C262.731 52.1442 263.086 52.1134 263.436 52.0511C263.746 51.9967 264.051 51.9168 264.349 51.8121M254.227 47.4839C254.228 47.1062 254.178 46.7302 254.08 46.3654C253.991 46.0175 253.835 45.6903 253.62 45.4022C253.403 45.1213 253.126 44.8925 252.809 44.7331C252.281 44.4969 251.695 44.4213 251.124 44.5159C250.553 44.6106 250.023 44.8711 249.601 45.2648C249.08 45.8928 248.777 46.6709 248.735 47.4839H254.227ZM248.701 48.4925C248.617 49.4861 248.928 50.4731 249.568 51.2409C249.918 51.5551 250.329 51.7952 250.776 51.9466C251.223 52.098 251.695 52.1575 252.166 52.1216C252.602 52.1245 253.038 52.0844 253.466 52.0021C253.863 51.9234 254.254 51.8164 254.636 51.6818C254.705 51.8403 254.754 52.0064 254.784 52.1766C254.818 52.3524 254.842 52.5299 254.857 52.7083C254.455 52.8809 254.034 53.0041 253.603 53.0752C253.087 53.1639 252.564 53.2071 252.041 53.2042C251.327 53.221 250.617 53.0992 249.95 52.8458C249.397 52.6303 248.903 52.288 248.508 51.8468C248.124 51.4014 247.841 50.8789 247.678 50.3148C247.494 49.6803 247.404 49.0225 247.411 48.3622C247.407 47.7123 247.49 47.0648 247.66 46.4371C247.811 45.869 248.067 45.3341 248.415 44.8597C248.756 44.4057 249.202 44.0407 249.715 43.7962C250.311 43.5256 250.96 43.394 251.615 43.4114C252.177 43.4016 252.736 43.5077 253.256 43.7233C253.718 43.9201 254.131 44.2178 254.463 44.5944C254.799 44.9854 255.05 45.441 255.201 45.9328C255.371 46.4819 255.455 47.0539 255.449 47.6285C255.449 47.7384 255.449 47.8794 255.44 48.0503C255.43 48.2212 255.424 48.3682 255.412 48.4901L248.701 48.4925ZM242.101 44.6602H240.498C240.484 44.5811 240.474 44.5013 240.47 44.4212C240.463 44.3244 240.46 44.2264 240.46 44.1284C240.46 44.0304 240.46 43.9396 240.47 43.8536C240.475 43.7798 240.484 43.7064 240.498 43.6337H242.101V41.8735L243.244 40.755H243.318V43.6313H245.863C245.876 43.704 245.885 43.7774 245.89 43.8512C245.897 43.9372 245.9 44.0292 245.9 44.126C245.9 44.2228 245.9 44.322 245.89 44.4188C245.886 44.4989 245.877 44.5787 245.863 44.6578H243.318V50.745C243.308 50.992 243.349 51.2384 243.438 51.4691C243.506 51.6307 243.614 51.7726 243.752 51.8814C243.882 51.9797 244.033 52.0456 244.194 52.0738C244.361 52.1044 244.531 52.1196 244.701 52.1192C245.082 52.1266 245.462 52.0709 245.825 51.9543C245.914 52.2914 245.976 52.6351 246.009 52.982C245.506 53.1245 244.984 53.1926 244.461 53.1839C243.843 53.2117 243.236 53.0127 242.756 52.6247C242.519 52.3867 242.338 52.1 242.225 51.7847C242.112 51.4694 242.07 51.1332 242.101 50.8V44.6602ZM234.764 53.2054C234.129 53.219 233.499 53.0904 232.921 52.829C232.406 52.5902 231.953 52.2355 231.599 51.793C231.238 51.3313 230.972 50.8035 230.816 50.2395C230.472 48.9785 230.472 47.6491 230.816 46.3881C230.972 45.8241 231.238 45.2961 231.599 44.8346C231.953 44.3921 232.406 44.0375 232.921 43.7986C233.499 43.5375 234.129 43.4089 234.764 43.4222C235.396 43.4081 236.023 43.5368 236.598 43.7986C237.109 44.0397 237.557 44.3941 237.908 44.8346C238.27 45.297 238.539 45.8245 238.7 46.3881C239.057 47.6475 239.057 48.9802 238.7 50.2395C238.539 50.803 238.269 51.3304 237.908 51.793C237.557 52.2336 237.109 52.588 236.598 52.829C236.023 53.0911 235.396 53.2198 234.764 53.2054ZM234.764 52.1419C235.188 52.17 235.613 52.0904 235.999 51.9107C236.384 51.731 236.717 51.4569 236.967 51.1142C237.445 50.2548 237.696 49.2885 237.696 48.306C237.696 47.3236 237.445 46.3573 236.967 45.4978C236.698 45.1765 236.361 44.918 235.98 44.7406C235.6 44.5631 235.185 44.4712 234.764 44.4712C234.344 44.4712 233.929 44.5631 233.548 44.7406C233.167 44.918 232.831 45.1765 232.562 45.4978C232.083 46.3573 231.832 47.3236 231.832 48.306C231.832 49.2885 232.083 50.2548 232.562 51.1142C232.811 51.4568 233.144 51.7307 233.53 51.9104C233.915 52.0901 234.339 52.1698 234.764 52.1419ZM224.92 43.6337C225.019 43.6217 225.114 43.6126 225.206 43.6062C225.297 43.6002 225.387 43.5966 225.473 43.5966C225.558 43.5966 225.664 43.5966 225.749 43.6062C225.834 43.6158 225.928 43.6217 226.026 43.6337C226.051 43.8536 226.07 44.1133 226.082 44.4128C226.094 44.7123 226.1 44.9844 226.1 45.229C226.35 44.7724 226.703 44.3801 227.132 44.083C227.652 43.7493 228.265 43.5859 228.883 43.6158H229.077C229.154 43.6164 229.231 43.6223 229.307 43.6337C229.343 43.8273 229.361 44.0236 229.363 44.2204C229.363 44.4114 229.345 44.6019 229.307 44.7892C229.231 44.7788 229.154 44.7728 229.077 44.7713H228.902C228.53 44.7545 228.159 44.8161 227.813 44.952C227.466 45.0879 227.153 45.2951 226.893 45.56C226.317 46.3077 226.047 47.2442 226.136 48.1818V52.9868C226.035 53.0015 225.934 53.0107 225.832 53.0143C225.703 53.0202 225.601 53.0238 225.528 53.0238C225.455 53.0238 225.368 53.0238 225.234 53.0143C225.129 53.0109 225.024 53.0017 224.92 52.9868V43.6337ZM219.095 44.6602H217.49C217.475 44.5812 217.466 44.5013 217.462 44.4212C217.456 44.3244 217.454 44.2264 217.454 44.1284C217.454 44.0304 217.454 43.9396 217.462 43.8536C217.467 43.7798 217.476 43.7063 217.49 43.6337H219.094V41.8735L220.237 40.755H220.311V43.6313H222.854C222.868 43.7039 222.877 43.7774 222.881 43.8512C222.887 43.9372 222.891 44.0292 222.891 44.126C222.891 44.2228 222.891 44.322 222.881 44.4188C222.877 44.499 222.868 44.5788 222.854 44.6578H220.311V50.745C220.301 50.992 220.341 51.2384 220.431 51.4691C220.499 51.6307 220.607 51.7725 220.744 51.8814C220.874 51.9794 221.026 52.0454 221.186 52.0738C221.354 52.1043 221.523 52.1195 221.693 52.1192C222.075 52.1266 222.455 52.0709 222.818 51.9543C222.907 52.2914 222.968 52.635 223.002 52.982C222.498 53.1246 221.976 53.1926 221.453 53.1839C220.835 53.2117 220.228 53.0127 219.748 52.6247C219.512 52.3867 219.33 52.1 219.217 51.7847C219.104 51.4694 219.062 51.1332 219.094 50.8L219.095 44.6602ZM211.406 48.1626L214.78 43.6337C214.993 43.5956 215.209 43.5771 215.425 43.5787C215.684 43.5778 215.943 43.5962 216.2 43.6337L212.844 48.0348L216.809 52.9856C216.59 53.0221 216.368 53.0405 216.146 53.0405C215.88 53.041 215.615 53.0226 215.353 52.9856L211.406 48.1626ZM209.416 39.5074C209.517 39.493 209.618 39.4838 209.72 39.4799C209.85 39.4728 209.95 39.4704 210.025 39.4704C210.099 39.4704 210.185 39.4704 210.319 39.4799C210.424 39.4836 210.529 39.4928 210.633 39.5074V52.9856C210.529 53.0006 210.424 53.0098 210.319 53.0131C210.183 53.019 210.085 53.0226 210.025 53.0226C209.965 53.0226 209.85 53.0226 209.72 53.0131C209.618 53.0095 209.517 53.0003 209.416 52.9856V39.5074ZM205.526 47.4839C205.527 47.1063 205.477 46.7302 205.379 46.3654C205.29 46.0176 205.133 45.6904 204.918 45.4022C204.702 45.1213 204.425 44.8925 204.107 44.7331C203.58 44.4967 202.993 44.4211 202.422 44.5157C201.852 44.6103 201.322 44.871 200.9 45.2648C200.378 45.8926 200.074 46.6707 200.032 47.4839H205.526ZM200 48.4925C199.915 49.4861 200.226 50.4731 200.866 51.2409C201.217 51.5551 201.628 51.7952 202.074 51.9466C202.521 52.098 202.994 52.1575 203.464 52.1216C203.901 52.1245 204.336 52.0844 204.764 52.0021C205.162 51.9234 205.553 51.8164 205.934 51.6818C206.003 51.8403 206.053 52.0064 206.082 52.1766C206.116 52.3524 206.141 52.5299 206.155 52.7083C205.754 52.8809 205.334 53.0041 204.902 53.0752C204.387 53.1639 203.864 53.2071 203.341 53.2042C202.626 53.2211 201.916 53.0993 201.248 52.8458C200.695 52.6303 200.201 52.288 199.806 51.8468C199.422 51.4014 199.139 50.8789 198.976 50.3148C198.792 49.6803 198.703 49.0225 198.71 48.3622C198.705 47.7123 198.789 47.0648 198.958 46.4371C199.109 45.869 199.365 45.3341 199.714 44.8597C200.054 44.4059 200.5 44.041 201.014 43.7962C201.609 43.5256 202.259 43.394 202.913 43.4114C203.476 43.4016 204.035 43.5077 204.554 43.7233C205.017 43.9198 205.43 44.2176 205.761 44.5944C206.097 44.9854 206.348 45.441 206.499 45.9328C206.669 46.4819 206.753 47.0539 206.748 47.6285C206.748 47.7384 206.748 47.8794 206.738 48.0503C206.728 48.2212 206.722 48.3682 206.71 48.4901L200 48.4925ZM194.082 39.5062C194.183 39.4918 194.284 39.4826 194.386 39.4787C194.516 39.4716 194.617 39.4692 194.691 39.4692C194.766 39.4692 194.851 39.4692 194.986 39.4787C195.091 39.4824 195.195 39.4916 195.299 39.5062V50.8203C195.289 51.0724 195.326 51.3242 195.41 51.5624C195.464 51.7136 195.56 51.8468 195.686 51.9471C195.795 52.026 195.921 52.0765 196.055 52.0941C196.177 52.1115 196.3 52.1207 196.424 52.1216C196.565 52.1212 196.707 52.112 196.848 52.0941C196.972 52.0799 197.095 52.0583 197.216 52.0296C197.28 52.1828 197.324 52.3434 197.346 52.5076C197.37 52.6785 197.389 52.8374 197.401 52.9856C197.213 53.0506 197.018 53.0939 196.82 53.1146C196.621 53.1376 196.42 53.1496 196.219 53.1505C195.959 53.1503 195.7 53.1227 195.446 53.068C195.195 53.0163 194.958 52.9098 194.754 52.7561C194.542 52.5918 194.374 52.3779 194.265 52.1335C194.13 51.8052 194.067 51.4519 194.081 51.0975L194.082 39.5062ZM190.192 47.4827C190.192 47.105 190.143 46.729 190.045 46.3642C189.956 46.0163 189.8 45.6891 189.584 45.401C189.368 45.1201 189.091 44.8913 188.774 44.7319C188.246 44.4955 187.66 44.4199 187.089 44.5145C186.518 44.6091 185.988 44.8698 185.566 45.2636C185.045 45.8914 184.741 46.6696 184.7 47.4827H190.192ZM184.666 48.4913C184.582 49.4849 184.893 50.4719 185.532 51.2397C185.883 51.5539 186.294 51.794 186.741 51.9454C187.187 52.0968 187.66 52.1563 188.131 52.1204C188.567 52.1233 189.002 52.0832 189.431 52.0009C189.828 51.9222 190.219 51.8152 190.601 51.6807C190.67 51.8391 190.719 52.0052 190.749 52.1754C190.783 52.3512 190.807 52.5287 190.822 52.7071C190.421 52.8796 190 53.0028 189.569 53.074C189.053 53.1627 188.53 53.2059 188.007 53.2031C187.293 53.2199 186.582 53.0981 185.914 52.8446C185.361 52.6292 184.868 52.2869 184.473 51.8456C184.089 51.4002 183.805 50.8777 183.643 50.3136C183.459 49.6791 183.369 49.0213 183.376 48.361C183.372 47.7111 183.455 47.0636 183.625 46.4359C183.776 45.8678 184.032 45.3329 184.38 44.8585C184.721 44.4046 185.167 44.0397 185.68 43.795C186.275 43.5244 186.925 43.3928 187.579 43.4102C188.142 43.4004 188.701 43.5066 189.22 43.7221C189.684 43.9186 190.096 44.2164 190.428 44.5932C190.763 44.9842 191.015 45.4398 191.165 45.9316C191.336 46.4807 191.42 47.0527 191.414 47.6273C191.414 47.7372 191.414 47.8782 191.404 48.0491C191.395 48.22 191.389 48.367 191.377 48.4889L184.666 48.4913ZM175.006 46.8039C175.035 46.4859 174.999 46.1655 174.901 45.8615C174.802 45.5575 174.644 45.2762 174.435 45.0342C174.203 44.8342 173.934 44.6818 173.643 44.5859C173.352 44.4899 173.044 44.4522 172.738 44.4749C172.288 44.472 171.838 44.506 171.393 44.5765C171.025 44.635 170.661 44.7176 170.304 44.8239C170.229 44.673 170.177 44.512 170.148 44.3459C170.107 44.153 170.085 43.9564 170.083 43.7591C170.47 43.6471 170.864 43.5644 171.263 43.5118C171.741 43.4434 172.222 43.4095 172.705 43.4102C173.656 43.3346 174.601 43.6121 175.358 44.1893C175.67 44.5127 175.908 44.8983 176.057 45.3206C176.207 45.7428 176.264 46.1919 176.225 46.6378V52.8207C175.794 52.9067 175.274 52.9923 174.663 53.0776C174.083 53.161 173.497 53.2041 172.911 53.2066C171.963 53.258 171.021 53.0212 170.211 52.5279C169.872 52.2745 169.604 51.9394 169.431 51.5543C169.259 51.1692 169.187 50.7468 169.224 50.3267C169.216 49.8725 169.314 49.4225 169.51 49.0123C169.697 48.6325 169.968 48.3002 170.303 48.0408C170.666 47.765 171.079 47.562 171.52 47.4433C172.029 47.304 172.554 47.236 173.082 47.2413C173.524 47.2413 173.905 47.2564 174.224 47.2867C174.544 47.317 174.808 47.3445 175.017 47.3692L175.006 46.8039ZM175.006 48.4363C174.798 48.4116 174.537 48.3841 174.223 48.3538C173.909 48.3236 173.611 48.3084 173.329 48.3084C172.581 48.2643 171.837 48.4432 171.191 48.8223C170.949 48.981 170.752 49.1995 170.619 49.4564C170.487 49.7134 170.423 50 170.435 50.2885C170.419 50.6274 170.499 50.964 170.666 51.26C170.812 51.4969 171.019 51.6901 171.267 51.8193C171.52 51.95 171.795 52.0368 172.078 52.0762C172.371 52.119 172.667 52.1406 172.963 52.1407C173.32 52.142 173.677 52.1237 174.032 52.0858C174.365 52.0491 174.69 52.0001 175.009 51.9388L175.006 48.4363ZM160.908 42.1113C160.658 42.1501 160.405 42.1685 160.152 42.1662C159.948 42.1646 159.744 42.1462 159.543 42.1113L161.705 39.7273C161.842 39.7026 161.981 39.6902 162.12 39.6902H162.534C162.682 39.6902 162.829 39.6934 162.976 39.6998C163.124 39.7058 163.265 39.7153 163.4 39.7273L160.908 42.1113ZM160.742 44.6602H159.562C159.549 44.5875 159.539 44.5141 159.535 44.4403C159.528 44.3542 159.525 44.2622 159.525 44.1642C159.525 44.0663 159.525 43.9695 159.535 43.8715C159.539 43.7913 159.548 43.7115 159.562 43.6325H161.959V52.9844C161.858 52.9992 161.757 53.0083 161.655 53.0119C161.526 53.0178 161.424 53.0214 161.351 53.0214C161.278 53.0214 161.191 53.0214 161.057 53.0119C160.952 53.0085 160.847 52.9994 160.743 52.9844L160.742 44.6602ZM149.626 43.6337C149.725 43.6217 149.82 43.6122 149.912 43.6062C150.005 43.6002 150.093 43.5966 150.18 43.5966C150.266 43.5966 150.37 43.5966 150.456 43.6062C150.543 43.6158 150.635 43.6217 150.733 43.6337C150.757 43.8536 150.776 44.1288 150.788 44.4594C150.8 44.79 150.806 45.0772 150.806 45.321C150.943 45.0822 151.104 44.858 151.286 44.6518C151.49 44.4194 151.722 44.213 151.977 44.0376C152.259 43.8456 152.566 43.6943 152.89 43.5883C153.253 43.4691 153.633 43.4101 154.015 43.4138C154.457 43.3749 154.902 43.4421 155.313 43.6096C155.723 43.7772 156.088 44.0404 156.375 44.377C156.912 45.1736 157.171 46.1237 157.113 47.0812V52.9856C157.012 53.0003 156.911 53.0095 156.809 53.0131C156.679 53.019 156.578 53.0226 156.505 53.0226C156.432 53.0226 156.345 53.0226 156.209 53.0131C156.104 53.0097 156 53.0006 155.896 52.9856V47.448C155.959 46.6707 155.789 45.8922 155.407 45.211C155.24 44.9846 155.018 44.8036 154.761 44.685C154.505 44.5664 154.223 44.5139 153.941 44.5323C153.522 44.5299 153.107 44.6176 152.724 44.7892C152.344 44.96 152.007 45.2136 151.738 45.5313C151.444 45.8861 151.222 46.2938 151.083 46.7322C150.915 47.2599 150.834 47.8112 150.843 48.3646V52.9856C150.742 53.0003 150.641 53.0095 150.539 53.0131C150.409 53.019 150.309 53.0226 150.235 53.0226C150.162 53.0226 150.075 53.0226 149.94 53.0131C149.835 53.0097 149.73 53.0006 149.626 52.9856V43.6337ZM144.557 41.3417C144.544 41.2318 144.534 41.0971 144.528 40.9378C144.528 40.7789 144.518 40.645 144.518 40.5339C144.518 40.4228 144.518 40.314 144.528 40.167C144.537 40.0201 144.543 39.8982 144.557 39.8002C144.667 39.7882 144.797 39.7787 144.961 39.7727C145.126 39.7667 145.257 39.7631 145.367 39.7631C145.478 39.7631 145.589 39.7631 145.736 39.7727C145.884 39.7823 146.007 39.7882 146.104 39.8002C146.117 39.8982 146.126 40.0201 146.133 40.167C146.14 40.314 146.142 40.4359 146.142 40.5339C146.142 40.6319 146.142 40.7729 146.133 40.9378C146.123 41.1027 146.117 41.2318 146.104 41.3417C146.007 41.3537 145.883 41.3632 145.736 41.3692C145.59 41.3752 145.466 41.3788 145.367 41.3788C145.269 41.3788 145.127 41.3788 144.961 41.3692C144.796 41.3596 144.667 41.3537 144.557 41.3417ZM145.164 44.6614H143.985C143.971 44.5887 143.962 44.5153 143.957 44.4415C143.951 44.3554 143.948 44.2634 143.948 44.1654C143.948 44.0675 143.948 43.9707 143.957 43.8727C143.961 43.7925 143.97 43.7126 143.985 43.6337H146.381V53.7743C146.397 54.2068 146.321 54.6377 146.16 55.0397C146.033 55.3425 145.834 55.6099 145.58 55.8189C145.338 56.0094 145.059 56.1471 144.76 56.2228C144.459 56.3015 144.149 56.3417 143.838 56.3423C143.523 56.348 143.208 56.3236 142.898 56.2694C142.683 56.2294 142.473 56.1677 142.272 56.0853C142.296 55.9515 142.333 55.7834 142.382 55.5811C142.42 55.4139 142.475 55.2512 142.548 55.0959C142.888 55.2281 143.252 55.2903 143.617 55.2787C143.737 55.2787 143.89 55.2728 144.068 55.2608C144.245 55.2488 144.418 55.1986 144.575 55.1138C144.746 55.0179 144.889 54.879 144.989 54.7111C145.121 54.4635 145.182 54.1843 145.164 53.9045V44.6614ZM137.588 53.2066C136.953 53.2202 136.323 53.0916 135.745 52.8302C135.23 52.5914 134.777 52.2367 134.423 51.7942C134.062 51.3326 133.796 50.8047 133.64 50.2407C133.296 48.9798 133.296 47.6502 133.64 46.3893C133.796 45.8252 134.062 45.2972 134.423 44.8358C134.777 44.3933 135.23 44.0387 135.745 43.7998C136.323 43.5387 136.953 43.41 137.588 43.4234C138.22 43.4092 138.847 43.5379 139.422 43.7998C139.932 44.041 140.38 44.3955 140.732 44.8358C141.094 45.2982 141.363 45.8257 141.524 46.3893C141.881 47.6486 141.881 48.9813 141.524 50.2407C141.363 50.8042 141.093 51.3316 140.732 51.7942C140.381 52.2346 139.933 52.589 139.422 52.8302C138.847 53.0923 138.22 53.221 137.588 53.2066ZM137.588 52.1431C138.012 52.1712 138.437 52.0916 138.823 51.9119C139.208 51.7322 139.541 51.4581 139.791 51.1154C140.269 50.256 140.52 49.2897 140.52 48.3072C140.52 47.3248 140.269 46.3585 139.791 45.499C139.522 45.1777 139.185 44.9192 138.805 44.7418C138.424 44.5643 138.009 44.4724 137.588 44.4724C137.168 44.4724 136.753 44.5643 136.372 44.7418C135.991 44.9192 135.655 45.1777 135.386 45.499C134.907 46.3583 134.656 47.3247 134.656 48.3072C134.656 49.2897 134.907 50.2561 135.386 51.1154C135.635 51.458 135.968 51.732 136.353 51.9118C136.739 52.0915 137.163 52.1711 137.588 52.1431ZM127.751 43.6313C127.85 43.6193 127.945 43.6098 128.037 43.6038C128.13 43.5978 128.219 43.5942 128.305 43.5942C128.392 43.5942 128.495 43.5942 128.581 43.6038C128.668 43.6134 128.76 43.6193 128.858 43.6313C128.882 43.8512 128.901 44.1093 128.913 44.4104C128.925 44.7115 128.931 44.9816 128.931 45.2266C129.181 44.7699 129.535 44.3775 129.964 44.0806C130.485 43.7469 131.097 43.5836 131.716 43.6134H131.909C131.986 43.6139 132.063 43.6199 132.14 43.6313C132.175 43.8249 132.194 44.0212 132.195 44.218C132.196 44.409 132.177 44.5995 132.14 44.7868C132.063 44.7764 131.986 44.7704 131.909 44.7689H131.735C131.363 44.7521 130.992 44.8137 130.645 44.9496C130.299 45.0855 129.985 45.2927 129.725 45.5576C129.15 46.3054 128.88 47.2419 128.969 48.1794V52.9844C128.869 52.9992 128.767 53.0083 128.666 53.0119C128.536 53.0178 128.435 53.0214 128.362 53.0214C128.288 53.0214 128.202 53.0214 128.066 53.0119C127.961 53.0085 127.856 52.9994 127.753 52.9844L127.751 43.6313ZM121.926 44.6578H120.322C120.308 44.5788 120.299 44.499 120.295 44.4188C120.289 44.322 120.285 44.224 120.285 44.126C120.285 44.028 120.285 43.9372 120.295 43.8512C120.299 43.7774 120.309 43.7039 120.322 43.6313H121.926V41.8735L123.069 40.755H123.142V43.6313H125.686C125.7 43.7039 125.709 43.7774 125.714 43.8512C125.72 43.9372 125.723 44.0292 125.723 44.126C125.723 44.2228 125.724 44.322 125.714 44.4188C125.71 44.499 125.701 44.5788 125.686 44.6578H123.138V50.745C123.128 50.992 123.169 51.2385 123.258 51.4691C123.326 51.6306 123.434 51.7724 123.572 51.8814C123.702 51.9794 123.853 52.0454 124.014 52.0738C124.181 52.1043 124.351 52.1195 124.521 52.1192C124.902 52.1267 125.282 52.071 125.645 51.9543C125.735 52.2913 125.797 52.635 125.83 52.982C125.327 53.1245 124.805 53.1926 124.282 53.1839C123.664 53.2117 123.057 53.0127 122.577 52.6247C122.341 52.3867 122.159 52.1 122.046 51.7847C121.933 51.4694 121.891 51.1332 121.923 50.8L121.926 44.6578ZM112.916 51.6998C113.256 51.8291 113.608 51.9244 113.967 51.9842C114.374 52.0617 114.788 52.1017 115.202 52.1037C115.824 52.137 116.439 51.9661 116.953 51.6173C117.15 51.4845 117.312 51.3056 117.425 51.0964C117.537 50.8871 117.597 50.6537 117.598 50.4164C117.609 50.1319 117.542 49.8497 117.404 49.6002C117.274 49.3846 117.097 49.1999 116.888 49.0589C116.663 48.9071 116.418 48.7865 116.16 48.7004L115.33 48.416C115.023 48.318 114.719 48.2081 114.417 48.0862C114.128 47.9706 113.858 47.8132 113.615 47.6189C113.383 47.4302 113.191 47.196 113.053 46.9306C112.901 46.6165 112.828 46.2704 112.841 45.9221C112.83 45.5774 112.898 45.2348 113.04 44.9203C113.182 44.6058 113.395 44.3276 113.661 44.1069C114.397 43.5855 115.295 43.3388 116.196 43.4102C116.663 43.4092 117.129 43.4524 117.588 43.5393C117.943 43.5994 118.292 43.6913 118.63 43.8141C118.568 44.1682 118.482 44.5176 118.371 44.8597C118.047 44.7567 117.718 44.6709 117.385 44.6028C116.976 44.5159 116.559 44.4727 116.141 44.4737C115.58 44.4223 115.018 44.5613 114.546 44.8681C114.394 44.9937 114.272 45.1523 114.191 45.3319C114.109 45.5115 114.07 45.7072 114.077 45.9041C114.07 46.1142 114.125 46.3216 114.234 46.5016C114.343 46.6708 114.488 46.8143 114.658 46.9223C114.849 47.0452 115.053 47.147 115.266 47.2258C115.493 47.3118 115.737 47.3915 115.995 47.4648C116.327 47.5747 116.662 47.6942 117 47.8233C117.329 47.9473 117.639 48.1171 117.921 48.3275C118.201 48.54 118.434 48.8087 118.603 49.1162C118.794 49.4851 118.886 49.8966 118.871 50.3112C118.877 50.7268 118.785 51.1379 118.603 51.5122C118.428 51.8699 118.172 52.1833 117.857 52.4287C117.516 52.6906 117.129 52.8867 116.715 53.0071C116.242 53.1458 115.751 53.2138 115.258 53.209C114.73 53.2136 114.203 53.1769 113.681 53.0991C113.299 53.0475 112.925 52.9491 112.567 52.8063C112.644 52.4282 112.761 52.0592 112.916 51.7057" fill="#313132"/>
<path d="M313.916 42.1125C313.666 42.1511 313.414 42.1695 313.161 42.1675C312.956 42.1655 312.753 42.1471 312.552 42.1125L314.714 39.7225C314.851 39.6978 314.989 39.6854 315.128 39.6855H315.543C315.689 39.6855 315.837 39.6855 315.985 39.695C316.133 39.7046 316.273 39.7106 316.409 39.7225L313.916 42.1125ZM316.184 46.8064C316.213 46.4883 316.177 46.1679 316.078 45.8639C315.98 45.5599 315.822 45.2786 315.613 45.0366C315.381 44.8366 315.112 44.6842 314.821 44.5882C314.529 44.4922 314.222 44.4545 313.916 44.4773C313.466 44.4744 313.016 44.5084 312.571 44.5789C312.203 44.6371 311.839 44.7198 311.482 44.8263C311.407 44.6752 311.355 44.5142 311.326 44.3483C311.285 44.1554 311.263 43.9588 311.261 43.7616C311.648 43.6498 312.042 43.5671 312.441 43.5142C312.918 43.4459 313.4 43.4119 313.883 43.4126C314.834 43.3372 315.779 43.6147 316.536 44.1917C316.848 44.5151 317.086 44.9007 317.235 45.323C317.385 45.7452 317.442 46.1943 317.402 46.6403V52.8207C316.972 52.9059 316.452 52.9916 315.841 53.0776C315.261 53.1606 314.675 53.2033 314.089 53.2055C313.141 53.2568 312.199 53.0201 311.389 52.5267C311.05 52.2734 310.782 51.9385 310.609 51.5537C310.437 51.1688 310.366 50.7466 310.402 50.3268C310.394 49.8725 310.492 49.4225 310.688 49.0123C310.875 48.6326 311.146 48.3003 311.481 48.0408C311.844 47.7651 312.257 47.5621 312.698 47.4433C313.207 47.3037 313.732 47.2357 314.26 47.2413C314.703 47.2413 315.084 47.2565 315.402 47.2867C315.721 47.317 315.985 47.3445 316.195 47.3692L316.184 46.8064ZM316.184 48.4387C315.976 48.414 315.715 48.3865 315.401 48.3562C315.087 48.326 314.789 48.3108 314.507 48.3108C313.759 48.2663 313.015 48.4448 312.369 48.8235C312.126 48.9823 311.929 49.201 311.797 49.4582C311.664 49.7153 311.601 50.0022 311.613 50.2909C311.597 50.6298 311.677 50.9665 311.844 51.2624C311.99 51.4993 312.197 51.6925 312.445 51.8217C312.698 51.9524 312.973 52.0393 313.256 52.0786C313.549 52.1214 313.845 52.1429 314.141 52.1431C314.498 52.1444 314.855 52.126 315.21 52.0882C315.542 52.0523 315.867 52.0033 316.187 51.9412L316.184 48.4387ZM303.931 48.1639L307.304 43.6349C307.517 43.5968 307.733 43.5784 307.949 43.5799C308.208 43.5791 308.467 43.5975 308.723 43.6349L305.362 48.0348L309.326 52.9856C309.106 53.0221 308.884 53.0405 308.662 53.0406C308.396 53.0409 308.131 53.0226 307.869 52.9856L303.931 48.1639ZM301.94 39.5086C302.041 39.4938 302.143 39.4847 302.245 39.4811C302.374 39.4752 302.476 39.4716 302.549 39.4716C302.623 39.4716 302.709 39.4716 302.844 39.4811C302.949 39.4844 303.053 39.4936 303.157 39.5086V52.9856C303.053 53.0006 302.949 53.0098 302.844 53.0131C302.709 53.019 302.611 53.0226 302.549 53.0226C302.488 53.0226 302.374 53.0226 302.245 53.0131C302.143 53.0096 302.041 53.0004 301.94 52.9856V39.5086ZM299.323 51.8169C299.397 51.9756 299.456 52.1414 299.498 52.3116C299.552 52.5187 299.593 52.69 299.618 52.8255C299.276 52.9444 298.925 53.0363 298.568 53.1003C298.136 53.177 297.698 53.2138 297.259 53.2102C296.619 53.2553 295.977 53.1668 295.374 52.9505C294.771 52.7343 294.219 52.3949 293.756 51.9543C292.894 50.9433 292.463 49.6379 292.554 48.3156C292.548 47.6591 292.648 47.006 292.85 46.3809C293.032 45.8112 293.327 45.2832 293.716 44.8275C294.108 44.3796 294.596 44.0254 295.144 43.7914C295.772 43.5299 296.447 43.4017 297.127 43.415C297.574 43.4137 298.021 43.4476 298.464 43.5166C298.805 43.5644 299.141 43.6412 299.469 43.746C299.466 43.9309 299.444 44.1151 299.404 44.2957C299.372 44.4642 299.326 44.6297 299.266 44.7904C298.963 44.6907 298.651 44.6172 298.335 44.5706C297.936 44.5074 297.532 44.4766 297.128 44.4785C296.632 44.468 296.14 44.565 295.686 44.7629C295.284 44.9448 294.93 45.2177 294.653 45.56C294.368 45.9185 294.158 46.3301 294.036 46.7705C293.895 47.2719 293.827 47.7904 293.833 48.3108C293.787 48.8338 293.848 49.3605 294.011 49.8597C294.174 50.3589 294.436 50.8205 294.782 51.217C295.126 51.5346 295.531 51.7803 295.973 51.9393C296.415 52.0984 296.884 52.1677 297.354 52.1431C297.709 52.1443 298.063 52.1139 298.413 52.0523C298.724 51.998 299.029 51.9181 299.326 51.8133" fill="#313132"/>
<path d="M253.654 70.4657C253.655 70.088 253.605 69.712 253.507 69.3472C253.418 68.9996 253.261 68.6727 253.045 68.3852C252.829 68.1041 252.552 67.8753 252.234 67.7161C251.707 67.4802 251.121 67.4048 250.55 67.4994C249.979 67.594 249.449 67.8544 249.027 68.2478C248.506 68.8754 248.202 69.6531 248.161 70.4657H253.654ZM248.128 71.4743C248.044 72.4679 248.355 73.4549 248.994 74.2227C249.345 74.5371 249.756 74.7772 250.203 74.9286C250.65 75.08 251.123 75.1395 251.594 75.1034C252.03 75.1062 252.466 75.0662 252.894 74.9839C253.291 74.9055 253.682 74.7984 254.064 74.6636C254.133 74.8221 254.183 74.9882 254.212 75.1584C254.246 75.3342 254.27 75.5117 254.285 75.6901C253.883 75.8624 253.462 75.9856 253.031 76.057C252.515 76.1457 251.993 76.1889 251.469 76.1861C250.755 76.2031 250.044 76.0813 249.376 75.8276C248.823 75.6123 248.329 75.27 247.935 74.8286C247.55 74.3839 247.267 73.8617 247.105 73.2978C246.921 72.6629 246.831 72.0047 246.838 71.344C246.833 70.6941 246.917 70.0465 247.087 69.4189C247.238 68.8509 247.494 68.316 247.842 67.8415C248.183 67.3875 248.629 67.0225 249.142 66.778C249.738 66.5074 250.387 66.3758 251.042 66.3932C251.604 66.383 252.163 66.4892 252.683 66.7051C253.146 66.9012 253.558 67.1985 253.89 67.575C254.225 67.9661 254.477 68.4217 254.627 68.9134C254.797 69.4626 254.881 70.0345 254.876 70.6091C254.876 70.719 254.873 70.8596 254.867 71.0309C254.86 71.2018 254.851 71.3488 254.839 71.4707L248.128 71.4743ZM245.013 74.7939C245.087 74.9528 245.146 75.1185 245.188 75.2886C245.244 75.4965 245.282 75.6674 245.308 75.8025C244.965 75.9214 244.614 76.0133 244.258 76.0773C243.826 76.1541 243.387 76.1909 242.948 76.1872C242.309 76.232 241.667 76.1435 241.064 75.9272C240.461 75.7109 239.91 75.3717 239.446 74.9313C238.585 73.9199 238.154 72.614 238.245 71.2914C238.238 70.635 238.338 69.9818 238.539 69.3568C238.722 68.7869 239.016 68.2588 239.406 67.8033C239.797 67.3554 240.285 67.0012 240.834 66.7672C241.461 66.5057 242.136 66.3775 242.816 66.3908C243.263 66.3895 243.71 66.4235 244.152 66.4924C244.493 66.5403 244.829 66.617 245.157 66.7218C245.154 66.9072 245.133 67.0917 245.093 67.2727C245.061 67.4412 245.015 67.6067 244.954 67.7674C244.651 67.6677 244.34 67.5941 244.023 67.5476C243.626 67.4847 243.224 67.4539 242.822 67.4555C242.327 67.4454 241.835 67.5424 241.381 67.7399C240.978 67.9219 240.625 68.1949 240.347 68.537C240.063 68.8958 239.853 69.3073 239.73 69.7475C239.59 70.2489 239.521 70.7674 239.527 71.2878C239.481 71.8108 239.542 72.3375 239.705 72.8367C239.868 73.3359 240.13 73.7975 240.476 74.194C240.821 74.5116 241.226 74.7572 241.668 74.9163C242.109 75.0753 242.579 75.1446 243.048 75.1201C243.403 75.1213 243.758 75.0909 244.107 75.0293C244.418 74.9749 244.723 74.895 245.021 74.7903M233.72 64.3199C233.708 64.21 233.698 64.0754 233.692 63.916C233.686 63.7571 233.682 63.6233 233.682 63.5121C233.682 63.401 233.682 63.2922 233.692 63.1453C233.702 62.9983 233.706 62.8764 233.72 62.7784C233.83 62.7665 233.966 62.7573 234.126 62.7509C234.287 62.7449 234.421 62.7414 234.532 62.7414C234.642 62.7414 234.753 62.7414 234.901 62.7509C235.048 62.7605 235.171 62.7665 235.269 62.7784C235.281 62.8764 235.291 62.9987 235.297 63.1453C235.304 63.2922 235.307 63.4141 235.307 63.5121C235.307 63.6101 235.307 63.7511 235.297 63.916C235.287 64.0809 235.281 64.21 235.269 64.3199C235.171 64.3319 235.048 64.341 234.901 64.3474C234.754 64.3534 234.63 64.357 234.532 64.357C234.433 64.357 234.292 64.357 234.126 64.3474C233.96 64.3379 233.831 64.3319 233.72 64.3199ZM234.329 67.6384H233.149C233.135 67.5657 233.126 67.4923 233.121 67.4185C233.115 67.3325 233.112 67.2404 233.112 67.1437C233.112 67.0469 233.112 66.9477 233.121 66.8497C233.125 66.7695 233.135 66.6897 233.149 66.6107H235.546V75.9626C235.445 75.9774 235.343 75.9866 235.241 75.9901C235.112 75.996 235.01 75.9996 234.937 75.9996C234.863 75.9996 234.777 75.9996 234.642 75.9901C234.537 75.9868 234.433 75.9776 234.329 75.9626V67.6384ZM223.01 66.6119C223.114 66.5969 223.219 66.5877 223.323 66.5844C223.459 66.578 223.588 66.5748 223.71 66.5748C223.809 66.5748 223.932 66.578 224.079 66.5844C224.19 66.5873 224.301 66.5965 224.411 66.6119L227.379 74.6983L230.403 66.6119C230.5 66.5973 230.599 66.5882 230.697 66.5844C230.817 66.5784 230.93 66.5748 231.029 66.5748C231.127 66.5748 231.238 66.5749 231.36 66.5844C231.459 66.5882 231.557 66.5973 231.655 66.6119L227.904 75.9626C227.716 75.9996 227.525 76.018 227.333 76.0176C227.136 76.0175 226.938 75.9991 226.744 75.9626L223.01 66.6119ZM217.604 76.1837C216.969 76.197 216.339 76.0683 215.761 75.8072C215.246 75.5684 214.794 75.2137 214.44 74.7712C214.078 74.3097 213.811 73.7818 213.655 73.2177C213.311 71.9568 213.311 70.6272 213.655 69.3663C213.811 68.8022 214.078 68.2743 214.44 67.8128C214.794 67.3703 215.246 67.0156 215.761 66.7768C216.339 66.5157 216.969 66.3871 217.604 66.4004C218.236 66.3863 218.863 66.515 219.438 66.7768C219.949 67.0182 220.397 67.3726 220.748 67.8128C221.11 68.2754 221.379 68.8028 221.541 69.3663C221.895 70.6249 221.894 71.9562 221.537 73.2141C221.375 73.7777 221.106 74.305 220.744 74.7676C220.393 75.2078 219.945 75.5622 219.435 75.8037C218.86 76.0655 218.233 76.1942 217.6 76.1801M217.6 75.1166C218.025 75.1441 218.449 75.0644 218.835 74.8849C219.22 74.7055 219.553 74.432 219.804 74.0901C220.282 73.2306 220.533 72.2643 220.533 71.2819C220.533 70.2995 220.282 69.3332 219.804 68.4737C219.535 68.1523 219.198 67.8938 218.817 67.7164C218.437 67.539 218.021 67.447 217.601 67.447C217.181 67.447 216.765 67.539 216.385 67.7164C216.004 67.8938 215.667 68.1523 215.398 68.4737C214.92 69.333 214.668 70.2994 214.668 71.2819C214.668 72.2644 214.92 73.2307 215.398 74.0901C215.648 74.4324 215.981 74.7061 216.366 74.8856C216.751 75.0651 217.176 75.1446 217.6 75.1166ZM208.862 64.3163C208.85 64.2064 208.841 64.0718 208.834 63.9124C208.828 63.7531 208.825 63.6185 208.825 63.5085C208.825 63.4113 208.828 63.2891 208.834 63.1417C208.841 62.9943 208.85 62.872 208.862 62.7748C208.973 62.7629 209.108 62.7537 209.268 62.7473C209.428 62.741 209.564 62.7378 209.674 62.7378C209.773 62.7378 209.896 62.741 210.043 62.7473C210.19 62.7537 210.313 62.7629 210.412 62.7748C210.424 62.8728 210.433 62.9951 210.441 63.1417C210.441 63.2887 210.449 63.4105 210.449 63.5085C210.449 63.6065 210.449 63.7475 210.441 63.9124C210.432 64.0773 210.425 64.2064 210.412 64.3163C210.313 64.3283 210.19 64.3375 210.043 64.3438C209.896 64.3502 209.773 64.3534 209.674 64.3534C209.564 64.3534 209.428 64.3502 209.268 64.3438C209.108 64.3375 208.973 64.3283 208.862 64.3163ZM209.471 67.6348H208.291C208.278 67.5621 208.268 67.4887 208.264 67.4149C208.258 67.3289 208.254 67.2369 208.254 67.1401C208.254 67.0433 208.254 66.9441 208.264 66.8461C208.268 66.7659 208.277 66.6861 208.291 66.6071H210.688V76.7477C210.703 77.1802 210.628 77.6111 210.467 78.0132C210.34 78.316 210.141 78.5834 209.887 78.7923C209.645 78.9831 209.365 79.1208 209.066 79.1962C208.765 79.275 208.456 79.3151 208.145 79.3157C207.83 79.3214 207.515 79.297 207.204 79.2428C206.99 79.203 206.78 79.1417 206.578 79.06C206.603 78.9253 206.64 78.7572 206.689 78.5557C206.726 78.388 206.782 78.2249 206.855 78.0693C207.195 78.2023 207.558 78.2649 207.924 78.2534C208.046 78.2534 208.197 78.2474 208.375 78.2354C208.553 78.2234 208.726 78.1733 208.882 78.0885C209.053 77.9919 209.196 77.8527 209.297 77.6845C209.429 77.4369 209.49 77.1578 209.472 76.8779L209.471 67.6348ZM199.35 62.721C199.557 62.6838 199.767 62.6654 199.977 62.6661C200.088 62.6661 200.217 62.6661 200.364 62.6756C200.5 62.68 200.636 62.6952 200.77 62.721L202.299 64.4083L203.83 62.721C203.967 62.6962 204.105 62.681 204.244 62.6756C204.385 62.6693 204.511 62.6661 204.623 62.6661C204.832 62.6665 205.042 62.6849 205.248 62.721L203.086 65.0871C202.955 65.1127 202.823 65.1279 202.69 65.1325C202.549 65.1397 202.417 65.1421 202.293 65.1421C202.169 65.1421 202.035 65.1421 201.887 65.1325C201.751 65.1281 201.615 65.113 201.481 65.0871L199.35 62.721ZM204.917 70.4597C204.917 70.0821 204.867 69.706 204.769 69.3412C204.68 68.9936 204.523 68.6668 204.308 68.3793C204.092 68.0981 203.815 67.8692 203.497 67.7101C202.969 67.474 202.383 67.3986 201.812 67.4932C201.241 67.5878 200.712 67.8483 200.289 68.2418C199.769 68.8694 199.465 69.6471 199.423 70.4597H204.917ZM199.391 71.4683C199.306 72.462 199.617 73.449 200.257 74.2167C200.608 74.5311 201.019 74.7712 201.466 74.9226C201.913 75.074 202.386 75.1335 202.857 75.0974C203.293 75.1003 203.728 75.0603 204.156 74.9779C204.554 74.8995 204.945 74.7925 205.326 74.6577C205.395 74.8162 205.445 74.9823 205.474 75.1524C205.508 75.3283 205.532 75.5058 205.548 75.6842C205.146 75.8565 204.726 75.9797 204.295 76.051C203.779 76.1398 203.256 76.183 202.733 76.1801C202.018 76.1971 201.308 76.0754 200.64 75.8216C200.087 75.6063 199.593 75.264 199.199 74.8226C198.814 74.3779 198.531 73.8557 198.368 73.2918C198.184 72.657 198.094 71.9988 198.101 71.338C198.096 70.6881 198.18 70.0406 198.349 69.4129C198.5 68.8449 198.756 68.3099 199.105 67.8356C199.445 67.3815 199.891 67.0165 200.405 66.772C201 66.5015 201.649 66.3699 202.303 66.3872C202.866 66.377 203.424 66.4832 203.944 66.6991C204.407 66.8949 204.82 67.1923 205.151 67.5691C205.487 67.96 205.738 68.4156 205.889 68.9074C206.059 69.4566 206.143 70.0285 206.137 70.6031C206.137 70.7131 206.137 70.8541 206.128 71.0249C206.118 71.1958 206.112 71.3428 206.1 71.4647L199.391 71.4683ZM194.147 67.8606C193.468 67.6097 192.751 67.4795 192.027 67.4759C191.511 67.4635 190.998 67.5635 190.525 67.7686C190.113 67.9554 189.75 68.2348 189.464 68.5848C189.17 68.9566 188.953 69.3838 188.829 69.8407C188.683 70.366 188.612 70.909 188.617 71.4539C188.572 71.9543 188.629 72.4587 188.786 72.9363C188.943 73.414 189.196 73.8549 189.529 74.2323C190.243 74.8509 191.174 75.164 192.119 75.1034C192.507 75.1043 192.895 75.0828 193.281 75.0389C193.573 75.0107 193.863 74.9587 194.147 74.8835V67.8606ZM194.147 62.4832C194.251 62.4683 194.356 62.4591 194.461 62.4558C194.596 62.4494 194.694 62.4462 194.756 62.4462C194.829 62.4462 194.93 62.4462 195.06 62.4558C195.162 62.4593 195.263 62.4685 195.364 62.4832V75.7463C194.9 75.8869 194.426 75.9911 193.945 76.0582C193.359 76.1455 192.768 76.1887 192.176 76.1872C191.535 76.1917 190.896 76.1113 190.276 75.9483C189.713 75.8031 189.191 75.5335 188.747 75.1596C188.296 74.7636 187.945 74.2674 187.724 73.7113C187.453 73.0034 187.324 72.2493 187.346 71.4922C187.335 70.7618 187.447 70.0346 187.678 69.3412C187.876 68.75 188.197 68.2066 188.619 67.7459C189.027 67.3095 189.528 66.9684 190.084 66.7469C190.685 66.5088 191.327 66.3902 191.974 66.398C192.378 66.3981 192.782 66.4321 193.181 66.4996C193.51 66.5497 193.833 66.6264 194.149 66.729L194.147 62.4832ZM177.151 66.6095C177.255 66.5945 177.359 66.5853 177.464 66.582C177.6 66.5756 177.698 66.5725 177.76 66.5725C177.833 66.5725 177.934 66.5725 178.064 66.582C178.165 66.5856 178.267 66.5948 178.368 66.6095V71.8674C178.353 72.4154 178.421 72.9625 178.571 73.4902C178.679 73.8676 178.886 74.2096 179.171 74.4808C179.447 74.7248 179.78 74.895 180.14 74.9755C180.563 75.0719 180.996 75.118 181.43 75.113C181.793 75.1154 182.156 75.0939 182.517 75.0484C182.804 75.0128 183.087 74.9548 183.365 74.8752V66.6143C183.469 66.5993 183.574 66.5901 183.679 66.5868C183.814 66.5804 183.913 66.5772 183.974 66.5772C184.048 66.5772 184.148 66.5772 184.278 66.5868C184.38 66.5904 184.481 66.5995 184.582 66.6143V75.7236C184.127 75.8463 183.62 75.953 183.061 76.0438C182.491 76.1364 181.915 76.1824 181.337 76.1813C180.789 76.1844 180.242 76.1291 179.706 76.0164C179.22 75.916 178.766 75.6985 178.384 75.383C177.983 75.0332 177.676 74.5892 177.491 74.0913C177.246 73.4011 177.134 72.6716 177.159 71.9403L177.151 66.6095ZM167.915 74.9349C168.087 74.9588 168.317 74.9803 168.607 74.9982C168.896 75.0162 169.199 75.0269 169.519 75.0269C169.992 75.0273 170.464 74.9841 170.929 74.8979C171.36 74.8229 171.775 74.6741 172.154 74.4581C172.504 74.2567 172.798 73.9732 173.012 73.6324C173.239 73.2434 173.351 72.7984 173.334 72.349C173.349 71.9021 173.254 71.4583 173.058 71.056C172.88 70.7146 172.62 70.4217 172.302 70.2028C171.961 69.9736 171.58 69.8114 171.178 69.7248C170.724 69.625 170.26 69.5761 169.795 69.579H167.915V74.9349ZM169.667 68.3888C170.453 68.4566 171.236 68.2199 171.852 67.728C172.082 67.5048 172.263 67.236 172.382 66.9389C172.501 66.6418 172.555 66.3232 172.542 66.0037C172.549 65.6911 172.487 65.381 172.361 65.0945C172.235 64.8081 172.049 64.552 171.814 64.3438C171.16 63.8436 170.341 63.6049 169.519 63.6746C169.198 63.6746 168.894 63.687 168.607 63.7117C168.317 63.7356 168.088 63.7607 167.915 63.7846V68.3876L169.667 68.3888ZM166.643 62.7724L167.169 62.7175C167.396 62.6928 167.638 62.6685 167.897 62.6446C168.156 62.6207 168.417 62.6023 168.68 62.5896C168.945 62.5777 169.181 62.5717 169.39 62.5717C170.563 62.4985 171.729 62.7909 172.726 63.4082C173.121 63.7107 173.434 64.1063 173.637 64.5592C173.84 65.0121 173.926 65.5081 173.888 66.0024C173.892 66.3555 173.833 66.7064 173.713 67.0385C173.601 67.3421 173.442 67.6267 173.243 67.8822C173.05 68.1297 172.816 68.3433 172.552 68.5143C172.298 68.6808 172.022 68.8103 171.732 68.8991C172.113 68.9481 172.485 69.0499 172.838 69.2014C173.206 69.3576 173.539 69.5864 173.817 69.8739C174.094 70.1614 174.31 70.5017 174.451 70.8744C174.628 71.346 174.713 71.847 174.7 72.3502C174.716 72.9429 174.579 73.5298 174.304 74.0554C174.037 74.5365 173.657 74.9464 173.197 75.2504C172.684 75.5852 172.114 75.8245 171.515 75.9566C170.823 76.1148 170.115 76.1918 169.405 76.1861C169.208 76.1861 168.987 76.1801 168.74 76.1681C168.494 76.1562 168.247 76.1406 167.994 76.1227C167.742 76.1048 167.497 76.0797 167.257 76.0498C167.016 76.02 166.811 75.9913 166.639 75.9674L166.643 62.7724ZM155.23 65.0835C154.98 65.122 154.728 65.1404 154.475 65.1385C154.27 65.1365 154.067 65.1181 153.866 65.0835L156.028 62.6936C156.165 62.6692 156.303 62.6572 156.442 62.6577H156.857C157.005 62.6577 157.151 62.6577 157.299 62.6673C157.447 62.6768 157.587 62.6828 157.723 62.6948L155.23 65.0835ZM157.903 70.4609C157.903 70.0833 157.854 69.7072 157.755 69.3424C157.666 68.995 157.509 68.6683 157.294 68.3805C157.078 68.0994 156.801 67.8706 156.483 67.7113C155.956 67.4752 155.369 67.3998 154.799 67.4944C154.228 67.589 153.698 67.8495 153.276 68.243C152.755 68.8706 152.451 69.6483 152.41 70.4609H157.903ZM152.377 71.4695C152.292 72.4632 152.603 73.4502 153.243 74.2179C153.594 74.5323 154.005 74.7724 154.452 74.9238C154.899 75.0752 155.372 75.1347 155.843 75.0986C156.279 75.1014 156.714 75.0614 157.142 74.9791C157.539 74.9007 157.931 74.7936 158.313 74.6589C158.381 74.8175 158.43 74.9836 158.459 75.1536C158.493 75.3294 158.518 75.5069 158.533 75.6854C158.132 75.8577 157.711 75.9809 157.28 76.0522C156.764 76.141 156.241 76.1841 155.718 76.1813C155.004 76.1984 154.293 76.0766 153.625 75.8228C153.072 75.6076 152.578 75.2653 152.184 74.8238C151.8 74.3789 151.516 73.8567 151.354 73.293C151.17 72.6581 151.08 71.9999 151.087 71.3392C151.083 70.6893 151.166 70.0418 151.336 69.4141C151.487 68.8461 151.744 68.3111 152.092 67.8367C152.432 67.3829 152.878 67.018 153.391 66.7732C153.986 66.5027 154.636 66.3711 155.29 66.3884C155.853 66.3783 156.412 66.4845 156.931 66.7003C157.395 66.8961 157.807 67.1935 158.139 67.5703C158.474 67.9612 158.726 68.4168 158.876 68.9086C159.047 69.4577 159.13 70.0297 159.125 70.6043C159.125 70.7143 159.125 70.8553 159.115 71.0261C159.106 71.197 159.1 71.344 159.088 71.4659L152.377 71.4695ZM144.708 71.1397L148.081 66.6107C148.294 66.5726 148.51 66.5542 148.726 66.5557C148.985 66.5549 149.244 66.5733 149.5 66.6107L146.145 71.0118L150.109 75.9626C149.89 75.9991 149.668 76.0175 149.446 76.0176C149.181 76.018 148.916 75.9996 148.653 75.9626L144.708 71.1397ZM142.717 62.4844C142.817 62.4706 142.918 62.4622 143.019 62.4593C143.148 62.453 143.25 62.4498 143.324 62.4498C143.385 62.4498 143.484 62.4498 143.618 62.4593C143.723 62.4626 143.828 62.4718 143.932 62.4868V75.9626C143.828 75.9776 143.723 75.9868 143.618 75.9901C143.483 75.996 143.385 75.9996 143.324 75.9996C143.263 75.9996 143.149 75.9996 143.019 75.9901C142.917 75.9865 142.816 75.9774 142.715 75.9626L142.717 62.4844ZM134.127 74.6732C134.466 74.8025 134.818 74.8978 135.177 74.9576C135.584 75.0347 135.997 75.0747 136.412 75.0771C137.033 75.111 137.649 74.94 138.163 74.5908C138.361 74.4579 138.523 74.2791 138.635 74.0698C138.748 73.8605 138.807 73.6271 138.808 73.3898C138.82 73.1057 138.753 72.8239 138.615 72.5748C138.484 72.359 138.308 72.1742 138.098 72.0335C137.873 71.8812 137.628 71.7606 137.37 71.675L136.54 71.3906C136.233 71.2926 135.929 71.1827 135.627 71.0608C135.338 70.9455 135.068 70.788 134.826 70.5936C134.57 70.3927 134.367 70.1341 134.232 69.8391C134.098 69.5441 134.036 69.2214 134.052 68.8979C134.041 68.5532 134.11 68.2106 134.252 67.8961C134.394 67.5816 134.606 67.3034 134.873 67.0827C135.609 66.5613 136.506 66.3146 137.407 66.386C137.875 66.3851 138.341 66.4283 138.8 66.5151C139.155 66.5756 139.503 66.6675 139.841 66.7899C139.78 67.144 139.693 67.4934 139.583 67.8356C139.259 67.7324 138.93 67.6466 138.597 67.5786C138.188 67.4917 137.771 67.4485 137.352 67.4496C136.791 67.3982 136.229 67.5372 135.758 67.8439C135.605 67.9694 135.484 68.1281 135.402 68.3077C135.321 68.4873 135.282 68.683 135.288 68.88C135.282 69.09 135.337 69.2974 135.446 69.4774C135.555 69.647 135.699 69.7909 135.87 69.8993C136.061 70.0216 136.265 70.1229 136.478 70.2016C136.705 70.2876 136.948 70.3673 137.206 70.4406C137.538 70.5505 137.873 70.67 138.211 70.7991C138.541 70.923 138.851 71.0928 139.133 71.3034C139.413 71.5158 139.646 71.7845 139.815 72.0921C140.005 72.4611 140.097 72.8726 140.082 73.287C140.087 73.7025 139.996 74.1136 139.815 74.488C139.639 74.8456 139.384 75.159 139.069 75.4045C138.728 75.6662 138.34 75.862 137.926 75.9817C137.454 76.1207 136.962 76.1888 136.469 76.1837C135.942 76.1882 135.415 76.1515 134.893 76.0737C134.511 76.0215 134.137 75.9232 133.778 75.781C133.855 75.4028 133.973 75.0339 134.128 74.6804M130.496 70.4621C130.496 70.0844 130.447 69.7084 130.349 69.3436C130.259 68.9961 130.103 68.6693 129.887 68.3817C129.671 68.1006 129.394 67.8718 129.076 67.7125C128.549 67.4764 127.962 67.401 127.392 67.4956C126.821 67.5902 126.291 67.8507 125.869 68.2442C125.348 68.8718 125.044 69.6495 125.003 70.4621H130.496ZM124.97 71.4707C124.885 72.4644 125.197 73.4514 125.836 74.2191C126.187 74.5335 126.598 74.7736 127.045 74.925C127.492 75.0764 127.965 75.1359 128.436 75.0998C128.872 75.1026 129.307 75.0626 129.735 74.9803C130.132 74.902 130.524 74.795 130.906 74.6601C130.974 74.8186 131.024 74.9847 131.053 75.1548C131.087 75.3306 131.111 75.5081 131.126 75.6866C130.725 75.8589 130.304 75.9821 129.873 76.0534C129.357 76.1422 128.834 76.1854 128.311 76.1825C127.597 76.1996 126.886 76.0778 126.218 75.824C125.666 75.6085 125.172 75.2662 124.777 74.825C124.393 74.3802 124.11 73.858 123.948 73.2942C123.763 72.6594 123.673 72.0012 123.68 71.3404C123.676 70.6905 123.759 70.043 123.929 69.4153C124.08 68.8473 124.337 68.3123 124.686 67.8379C125.026 67.3839 125.472 67.0189 125.985 66.7744C126.58 66.5039 127.23 66.3723 127.883 66.3896C128.446 66.3795 129.005 66.4857 129.524 66.7015C129.988 66.8973 130.4 67.1947 130.732 67.5715C131.068 67.9624 131.319 68.418 131.469 68.9098C131.64 69.4589 131.724 70.0309 131.718 70.6055C131.718 70.7154 131.715 70.8561 131.708 71.0273C131.702 71.1982 131.693 71.3452 131.681 71.4671L124.97 71.4707ZM115.863 59.6619C115.982 59.6365 116.102 59.6213 116.223 59.6165C116.353 59.6105 116.464 59.6069 116.565 59.6069C116.666 59.6069 116.783 59.6069 116.925 59.6165C117.07 59.6229 117.214 59.638 117.357 59.6619L118.815 60.9453L120.289 59.6619C120.552 59.6274 120.816 59.609 121.082 59.6069C121.18 59.6069 121.297 59.6101 121.432 59.6165C121.562 59.6219 121.692 59.6371 121.819 59.6619L119.496 61.6934C119.27 61.7304 119.042 61.7488 118.813 61.7483C118.585 61.7478 118.357 61.7295 118.131 61.6934L115.863 59.6619ZM121.67 74.4605C121.769 74.6437 121.855 74.821 121.928 74.9923C122.002 75.1634 122.057 75.3416 122.094 75.524C121.62 75.7506 121.118 75.9141 120.601 76.0104C120 76.1289 119.389 76.1874 118.776 76.1849C117.935 76.1952 117.1 76.0459 116.315 75.7451C115.59 75.4643 114.939 75.0258 114.407 74.4617C113.854 73.8579 113.433 73.1461 113.171 72.3717C112.862 71.4499 112.712 70.4825 112.729 69.5109C112.713 68.513 112.86 67.5192 113.162 66.5677C113.417 65.7666 113.831 65.0246 114.379 64.3856C114.899 63.7947 115.549 63.3306 116.277 63.0293C117.07 62.7082 117.919 62.5493 118.775 62.5621C119.424 62.551 120.073 62.6063 120.71 62.727C121.227 62.837 121.602 62.929 121.835 63.0031C121.816 63.1888 121.782 63.3727 121.733 63.5528C121.678 63.7332 121.613 63.9107 121.539 64.0845C121.379 64.0355 121.217 63.9865 121.052 63.9387C120.867 63.8852 120.679 63.8422 120.489 63.8097C120.28 63.773 120.038 63.7424 119.761 63.7177C119.485 63.693 119.162 63.6806 118.793 63.6806C118.121 63.67 117.454 63.8045 116.84 64.075C116.264 64.3359 115.758 64.7286 115.364 65.2209C114.936 65.7669 114.617 66.3896 114.424 67.0552C114.192 67.8534 114.08 68.6814 114.092 69.5121C114.075 70.3459 114.2 71.1765 114.461 71.969C114.675 72.6121 115.023 73.2027 115.483 73.7017C115.908 74.1524 116.432 74.5003 117.013 74.7186C117.617 74.9423 118.258 75.0541 118.902 75.0484C119.432 75.0533 119.961 74.9979 120.478 74.8835C120.892 74.7949 121.291 74.6531 121.668 74.4617" fill="#313132"/>
<path fill-rule="evenodd" clip-rule="evenodd" d="M79.9004 47.6681C79.8619 48.3373 79.8055 49.0112 79.7382 49.6804C79.725 49.9539 79.6302 50.2173 79.4658 50.4369C79.3015 50.6566 79.0751 50.8225 78.8156 50.9136L69.3143 54.2739C69.0476 55.1096 68.7469 55.9286 68.4121 56.7308C68.0918 57.5035 67.7362 58.2604 67.3454 59.0012L71.6701 68.0269C71.7815 68.2595 71.8248 68.5186 71.7951 68.7745C71.7653 69.0304 71.6637 69.2729 71.5019 69.474C70.6203 70.5726 69.6786 71.6222 68.6812 72.618C67.697 73.6003 66.6612 74.5301 65.5782 75.4035C65.3753 75.5921 65.1201 75.7157 64.8457 75.7583C64.5713 75.8009 64.2904 75.7606 64.0393 75.6425L54.9441 71.3406C54.1961 71.7254 53.4237 72.0799 52.6268 72.4041C51.8299 72.7283 51.0206 73.0195 50.1989 73.2776L46.8352 82.6869C46.7549 82.9412 46.6022 83.1668 46.3956 83.3365C46.189 83.5062 45.9374 83.6126 45.6712 83.6429C44.976 83.7225 44.2552 83.7863 43.5088 83.8341C42.788 83.8771 42.0816 83.901 41.4125 83.901C40.7434 83.901 40.019 83.8759 39.2801 83.8329C38.6146 83.7934 37.9431 83.7385 37.2667 83.6727C36.9913 83.6602 36.726 83.5662 36.5047 83.4027C36.2833 83.2392 36.1162 83.0136 36.0246 82.755L32.6525 73.3039C31.8147 73.0418 31.0035 72.7491 30.2186 72.4256C29.4337 72.1022 28.6617 71.7373 27.9024 71.331L20.0939 75.0247L29.4522 57.8349C31.8269 60.1234 34.8144 61.6825 38.057 62.3256C41.2995 62.9687 44.6597 62.6685 47.7352 61.461C50.8107 60.2535 53.4711 58.1899 55.398 55.5172C57.3248 52.8444 58.4365 49.676 58.5997 46.391C58.763 43.1061 57.971 39.844 56.3186 36.9953C54.6662 34.1465 52.2234 31.8319 49.2826 30.3285C46.3419 28.8252 43.0279 28.1968 39.7373 28.5185C36.4468 28.8403 33.3193 30.0987 30.7292 32.1429H27.7379L37.1142 7.44872L37.1911 7.43797C37.895 7.36866 38.5942 7.3113 39.2705 7.27067C40.0081 7.22765 40.7241 7.19897 41.4077 7.19897C42.0912 7.19897 42.8108 7.22765 43.5556 7.27067C44.2272 7.31011 44.9035 7.36508 45.5763 7.432C45.8516 7.44466 46.1169 7.53876 46.3382 7.70225C46.5595 7.86574 46.7267 8.09118 46.8184 8.34974L50.1953 17.802C51.0258 18.0649 51.8471 18.3621 52.6592 18.6935C53.4437 19.0137 54.2065 19.3638 54.9417 19.7415L63.9793 15.479C64.216 15.3581 64.4828 15.3076 64.7477 15.3337C65.0125 15.3597 65.2642 15.4612 65.4725 15.626C66.5752 16.5028 67.6283 17.4395 68.6272 18.4318C69.614 19.4093 70.5487 20.4376 71.4274 21.5124C71.6186 21.7151 71.7438 21.9704 71.7867 22.245C71.8296 22.5197 71.7881 22.8008 71.6677 23.0515L67.343 32.088C67.7434 32.8535 68.1038 33.6243 68.4242 34.4002C68.7445 35.1762 69.0412 35.984 69.3143 36.8237L78.7495 40.1624C79.0049 40.2422 79.2317 40.3939 79.4022 40.5992C79.5728 40.8045 79.6799 41.0546 79.7106 41.3192C79.7906 41.9971 79.8539 42.6922 79.9004 43.4044C79.9472 44.1357 79.9712 44.8479 79.9712 45.535C79.9712 46.2222 79.946 46.9308 79.9028 47.6717" fill="#313132"/>
<path fill-rule="evenodd" clip-rule="evenodd" d="M35.1801 37.041H20.6285L21.885 33.7285L31.9581 7.20001H13.9119L6 51.6711H15.13L14.6014 54.551L9.61837 83.9988L35.1801 37.041Z" fill="#AC1F29"/>
</g>
</g>
<defs>
<clipPath id="clip0_2077_4">
<rect width="390" height="76.8" fill="white" transform="translate(6 7.20001)"/>
</clipPath>
</defs>
</svg>
