<svg width="230" height="45" viewBox="0 0 230 45" fill="none" xmlns="http://www.w3.org/2000/svg">
<rect width="230" height="45" rx="15" fill="#D9D9D9"/>
<path d="M26.9195 33V16.23H20.7395V13.68H36.3395V16.23H30.1895V33H26.9195ZM38.9603 33V13.68H52.4303V16.23H42.2303V22.08H51.3203V24.6H42.2303V30.48H52.4303V33H38.9603ZM55.4545 33V13.68H58.3345L68.4145 27.9V13.68H71.6545V33H68.7745L58.7245 18.81V33H55.4545ZM80.4742 33V16.23H74.2942V13.68H89.8942V16.23H83.7442V33H80.4742ZM100.772 33.3C97.712 33.3 95.422 32.5 93.902 30.9C92.382 29.28 91.622 26.78 91.622 23.4C91.622 19.88 92.382 17.33 93.902 15.75C95.422 14.17 97.712 13.38 100.772 13.38C103.852 13.38 106.142 14.17 107.642 15.75C109.162 17.33 109.922 19.88 109.922 23.4C109.922 26.78 109.162 29.28 107.642 30.9C106.142 32.5 103.852 33.3 100.772 33.3ZM100.772 30.54C102.792 30.54 104.272 29.99 105.212 28.89C106.172 27.77 106.652 25.94 106.652 23.4C106.652 20.72 106.172 18.85 105.212 17.79C104.272 16.71 102.792 16.17 100.772 16.17C98.772 16.17 97.292 16.71 96.332 17.79C95.392 18.85 94.922 20.72 94.922 23.4C94.922 25.94 95.392 27.77 96.332 28.89C97.292 29.99 98.772 30.54 100.772 30.54ZM125.035 33V16.23H118.855V13.68H134.455V16.23H128.305V33H125.035ZM143.113 12.36L145.363 7.05H148.243L145.723 12.36H143.113ZM143.113 33V25.83L136.183 13.68H139.573L144.733 23.07L149.893 13.68H153.283L146.353 25.83V33H143.113ZM155.884 33V13.68H163.714C166.574 13.68 168.694 14.44 170.074 15.96C171.454 17.46 172.144 19.96 172.144 23.46C172.144 26.76 171.464 29.18 170.104 30.72C168.744 32.24 166.614 33 163.714 33H155.884ZM159.154 30.48H163.204C164.464 30.48 165.514 30.3 166.354 29.94C167.194 29.56 167.824 28.86 168.244 27.84C168.664 26.82 168.874 25.36 168.874 23.46C168.874 21.56 168.684 20.09 168.304 19.05C167.924 18.01 167.314 17.28 166.474 16.86C165.654 16.44 164.564 16.23 163.204 16.23H159.154V30.48ZM175.367 33V13.68H188.837V16.23H178.637V22.08H187.727V24.6H178.637V30.48H188.837V33H175.367ZM191.861 33V13.68H194.741L204.821 27.9V13.68H208.061V33H205.181L195.131 18.81V33H191.861Z" fill="black"/>
</svg>
