<svg width="180" height="45" viewBox="0 0 180 45" fill="none" xmlns="http://www.w3.org/2000/svg">
<rect width="180" height="45" rx="15" fill="#D9D9D9"/>
<path d="M41.766 32V14.612H49.407C51.279 14.612 52.638 15.098 53.484 16.07C54.348 17.042 54.78 18.356 54.78 20.012C54.78 21.29 54.465 22.352 53.835 23.198C53.223 24.044 52.305 24.611 51.081 24.899C51.441 25.115 51.711 25.367 51.891 25.655C52.089 25.925 52.287 26.294 52.485 26.762L54.753 32H52.485L50.271 26.951C50.037 26.411 49.749 26.024 49.407 25.79C49.083 25.556 48.498 25.439 47.652 25.439H43.98V32H41.766ZM43.98 23.711H48.786C49.956 23.711 50.874 23.423 51.54 22.847C52.224 22.253 52.566 21.308 52.566 20.012C52.566 17.582 51.405 16.367 49.083 16.367H43.98V23.711ZM65.0917 32.27C62.3737 32.27 60.3577 31.559 59.0437 30.137C57.7297 28.697 57.0727 26.42 57.0727 23.306C57.0727 20.192 57.7297 17.924 59.0437 16.502C60.3577 15.062 62.3737 14.342 65.0917 14.342C67.8277 14.342 69.8437 15.062 71.1397 16.502C72.4537 17.924 73.1107 20.192 73.1107 23.306C73.1107 26.42 72.4537 28.697 71.1397 30.137C69.8437 31.559 67.8277 32.27 65.0917 32.27ZM65.0917 30.38C66.4057 30.38 67.4857 30.155 68.3317 29.705C69.1957 29.255 69.8347 28.517 70.2487 27.491C70.6807 26.447 70.8967 25.052 70.8967 23.306C70.8967 21.56 70.6807 20.174 70.2487 19.148C69.8347 18.104 69.1957 17.357 68.3317 16.907C67.4857 16.457 66.4057 16.232 65.0917 16.232C63.7777 16.232 62.6887 16.457 61.8247 16.907C60.9787 17.357 60.3397 18.104 59.9077 19.148C59.4937 20.174 59.2867 21.56 59.2867 23.306C59.2867 25.052 59.4937 26.447 59.9077 27.491C60.3397 28.517 60.9787 29.255 61.8247 29.705C62.6887 30.155 63.7777 30.38 65.0917 30.38ZM75.0023 32V30.758L84.9383 16.367H75.4613V14.612H87.7463V15.989L77.8913 30.272H87.8813V32H75.0023ZM96.383 32L89.768 14.612H92.063L97.652 29.759L103.268 14.612H105.563L98.975 32H96.383ZM108.396 32V14.612H116.037C117.909 14.612 119.268 15.098 120.114 16.07C120.978 17.042 121.41 18.356 121.41 20.012C121.41 21.29 121.095 22.352 120.465 23.198C119.853 24.044 118.935 24.611 117.711 24.899C118.071 25.115 118.341 25.367 118.521 25.655C118.719 25.925 118.917 26.294 119.115 26.762L121.383 32H119.115L116.901 26.951C116.667 26.411 116.379 26.024 116.037 25.79C115.713 25.556 115.128 25.439 114.282 25.439H110.61V32H108.396ZM110.61 23.711H115.416C116.586 23.711 117.504 23.423 118.17 22.847C118.854 22.253 119.196 21.308 119.196 20.012C119.196 17.582 118.035 16.367 115.713 16.367H110.61V23.711ZM124.638 32V14.612H126.852V22.442H136.032V14.612H138.246V32H136.032V24.17H126.852V32H124.638Z" fill="black"/>
</svg>
