<svg width="180" height="45" viewBox="0 0 180 45" fill="none" xmlns="http://www.w3.org/2000/svg">
<rect width="180" height="45" rx="15" fill="#D9D9D9"/>
<path d="M47.8406 32.27C45.4646 32.27 43.6466 31.703 42.3866 30.569C41.1446 29.435 40.5236 27.788 40.5236 25.628V14.612H42.7376V25.655C42.7376 27.239 43.1786 28.427 44.0606 29.219C44.9606 29.993 46.2206 30.38 47.8406 30.38C49.4426 30.38 50.6846 29.993 51.5666 29.219C52.4666 28.427 52.9166 27.239 52.9166 25.655V14.612H55.1306V25.628C55.1306 27.788 54.5006 29.435 53.2406 30.569C51.9986 31.703 50.1986 32.27 47.8406 32.27ZM65.6308 13.424L62.5258 9.428H64.4428L66.5218 12.182L68.6008 9.428H70.5178L67.4128 13.424H65.6308ZM66.5758 32.27C64.7038 32.27 63.1468 31.919 61.9048 31.217C60.6808 30.497 59.7628 29.498 59.1508 28.22C58.5388 26.924 58.2328 25.412 58.2328 23.684C58.2328 21.794 58.5208 20.147 59.0968 18.743C59.6728 17.339 60.5728 16.259 61.7968 15.503C63.0208 14.729 64.6048 14.342 66.5488 14.342C67.5568 14.342 68.4658 14.414 69.2758 14.558C70.1038 14.702 70.8778 14.9 71.5978 15.152V17.096C70.8778 16.826 70.1128 16.619 69.3028 16.475C68.4928 16.313 67.6378 16.232 66.7378 16.232C65.1718 16.232 63.9298 16.529 63.0118 17.123C62.0938 17.717 61.4368 18.572 61.0408 19.688C60.6448 20.804 60.4468 22.136 60.4468 23.684C60.4468 25.826 60.9508 27.482 61.9588 28.652C62.9848 29.804 64.5958 30.38 66.7918 30.38C67.6018 30.38 68.4208 30.317 69.2488 30.191C70.0948 30.065 70.8778 29.867 71.5978 29.597V31.568C70.8958 31.784 70.1308 31.955 69.3028 32.081C68.4928 32.207 67.5838 32.27 66.5758 32.27ZM74.8304 32V14.612H86.5754V16.367H77.0444V22.442H85.6034V24.17H77.0444V30.272H86.5754V32H74.8304ZM89.807 32V14.612H97.853C99.563 14.612 100.814 15.017 101.606 15.827C102.416 16.619 102.821 17.744 102.821 19.202C102.821 20.156 102.623 20.957 102.227 21.605C101.849 22.235 101.318 22.712 100.634 23.036C101.516 23.252 102.209 23.675 102.713 24.305C103.235 24.917 103.496 25.826 103.496 27.032C103.496 28.724 103.055 29.975 102.173 30.785C101.291 31.595 99.995 32 98.285 32H89.807ZM92.021 22.226H97.718C98.816 22.226 99.59 21.965 100.04 21.443C100.508 20.903 100.742 20.21 100.742 19.364C100.742 18.356 100.508 17.6 100.04 17.096C99.572 16.574 98.663 16.313 97.313 16.313H92.021V22.226ZM92.021 30.326H97.907C99.077 30.326 99.932 30.074 100.472 29.57C101.012 29.048 101.282 28.175 101.282 26.951C101.282 25.943 101.012 25.187 100.472 24.683C99.95 24.161 98.978 23.9 97.556 23.9H92.021V30.326ZM106.735 32V14.612H108.733L118.642 28.598V14.612H120.856V32H118.831L108.949 18.041V32H106.735ZM124.098 32L130.713 14.612H133.305L139.893 32H137.625L135.789 27.221H128.229L126.393 32H124.098ZM128.607 25.466H135.384L131.982 16.529L128.607 25.466Z" fill="black"/>
</svg>
